<?xml version="1.0" standalone="no"?>
<!DOCTYPE svg PUBLIC "-//W3C//DTD SVG 20010904//EN"
 "http://www.w3.org/TR/2001/REC-SVG-20010904/DTD/svg10.dtd">
<svg version="1.0" xmlns="http://www.w3.org/2000/svg"
 width="1920.000000pt" height="1080.000000pt" viewBox="0 0 1920.000000 1080.000000"
 preserveAspectRatio="xMidYMid meet">
<metadata>
Created by potrace 1.16, written by Peter Selinger 2001-2019
</metadata>
<g transform="translate(0.000000,1080.000000) scale(0.100000,-0.100000)"
fill="#000000" stroke="none">
<path d="M0 8750 c0 -1770 2 -2050 14 -2050 8 0 21 -6 28 -13 7 -7 51 -19 98
-26 47 -7 107 -17 133 -22 27 -5 81 -11 120 -14 89 -7 139 -14 152 -24 6 -5
39 -16 75 -25 49 -13 98 -16 203 -14 75 2 137 -1 137 -5 0 -4 22 -6 49 -5 27
2 47 6 44 11 -2 4 0 7 6 7 5 0 17 13 26 28 9 15 31 36 48 47 17 11 38 25 47
30 9 6 34 25 57 42 22 18 43 30 47 26 3 -3 6 -1 6 6 0 6 12 16 26 21 14 6 22
14 19 20 -3 5 1 10 9 10 9 0 16 7 16 15 0 8 6 14 13 12 12 -2 14 29 4 86 -4
26 -3 27 16 14 12 -8 25 -27 30 -43 5 -16 12 -38 17 -49 5 -11 11 -32 14 -47
7 -29 5 -30 -99 -54 -16 -4 -64 -24 -105 -46 -138 -71 -131 -64 -151 -158 -9
-47 -22 -133 -28 -191 -12 -125 -23 -159 -50 -159 -11 0 -21 -4 -23 -9 -3 -11
-259 -131 -326 -154 -23 -8 -42 -11 -42 -7 0 4 25 15 55 25 54 19 55 19 32 33
-13 8 -29 24 -36 34 -7 12 -8 17 -2 13 6 -3 11 -1 11 6 0 8 4 8 13 1 12 -10
18 -12 37 -12 6 0 10 -4 10 -10 0 -5 -7 -10 -15 -10 -19 0 -20 -16 -1 -23 19
-8 66 14 66 31 0 6 5 12 11 12 5 0 7 -6 3 -12 -4 -8 -3 -10 2 -5 5 5 9 14 9
20 0 7 13 11 32 10 24 -2 31 1 27 11 -4 10 1 12 19 9 14 -3 28 1 32 7 5 9 2
10 -13 6 -11 -4 -23 -3 -26 2 -3 6 14 15 38 21 43 10 63 32 49 54 -4 7 0 8 12
3 14 -5 16 -4 7 7 -9 10 -8 17 0 25 9 9 9 15 -1 25 -11 10 -13 10 -7 0 9 -16
1 -16 -24 -3 -13 7 -29 5 -55 -6 -20 -8 -44 -12 -54 -9 -9 3 -26 -2 -37 -10
-18 -14 -18 -14 9 -15 16 0 26 -4 22 -10 -3 -5 1 -10 9 -10 9 0 16 -4 16 -10
0 -5 -4 -10 -9 -10 -6 0 -13 5 -16 10 -8 13 -55 13 -55 0 0 -5 8 -14 18 -19
15 -9 13 -10 -9 -11 -30 0 -54 23 -44 41 5 8 2 8 -11 1 -11 -5 -24 -7 -30 -5
-7 2 -22 -10 -34 -27 -12 -16 -28 -30 -36 -30 -15 0 -15 -21 1 -32 19 -14 -2
-17 -33 -6 -18 7 -34 20 -37 29 -4 11 -13 15 -25 12 -10 -3 -17 -10 -14 -16 7
-21 -12 -37 -45 -40 -28 -2 -32 -5 -28 -24 5 -25 0 -28 -23 -13 -12 7 -11 12
5 30 25 27 9 45 -28 31 -22 -9 -27 -8 -27 4 0 17 -16 20 -24 6 -4 -5 0 -11 6
-14 7 -2 -20 -2 -60 0 -70 3 -72 2 -62 -17 9 -16 8 -20 -5 -20 -9 0 -15 9 -15
21 0 12 -5 19 -13 16 -6 -2 -11 -10 -9 -16 1 -6 -5 -14 -13 -17 -8 -4 -15 -10
-15 -15 0 -6 7 -6 18 -1 9 5 37 6 62 2 25 -4 41 -8 37 -9 -15 -2 21 -31 40
-32 16 0 16 -1 -2 -8 -14 -6 -24 -2 -38 16 -16 20 -26 23 -83 21 -53 -1 -64
-4 -64 -19 0 -21 20 -29 70 -29 21 0 40 -4 42 -9 5 -13 48 -24 48 -12 0 5 14
12 30 16 17 4 30 10 30 13 0 6 43 7 123 3 9 -1 17 -6 17 -12 0 -5 -5 -7 -11
-3 -17 10 -122 5 -133 -6 -6 -6 -18 -10 -27 -10 -9 0 -19 -7 -23 -15 -3 -8
-15 -15 -27 -15 -18 0 -20 -4 -16 -27 3 -16 1 -107 -4 -204 -8 -165 -11 -180
-38 -235 -15 -33 -57 -117 -91 -189 -35 -71 -83 -156 -107 -187 -41 -54 -43
-60 -43 -125 0 -51 3 -64 11 -53 9 12 9 11 2 -5 -4 -11 -9 -295 -11 -632 l-3
-611 218 216 c120 120 268 270 329 335 61 64 115 117 121 117 6 0 14 -21 18
-46 3 -25 15 -79 25 -118 11 -40 31 -133 45 -207 15 -74 37 -181 50 -239 12
-58 28 -130 34 -160 6 -30 22 -113 36 -185 14 -71 36 -177 49 -235 13 -58 29
-132 35 -165 20 -103 42 -199 51 -220 5 -11 11 -33 15 -48 7 -34 24 -27 18 8
-5 23 3 20 113 -46 66 -39 133 -81 149 -93 17 -13 53 -36 80 -52 60 -35 165
-114 219 -165 l39 -37 -21 -36 c-12 -19 -35 -68 -53 -108 -17 -40 -38 -86 -46
-103 -8 -16 -29 -57 -45 -90 -17 -33 -35 -65 -40 -72 -14 -17 -45 13 -69 67
-18 40 -22 43 -33 28 -11 -15 -15 -12 -36 28 -28 50 -50 57 -50 17 l0 -28 -20
25 c-11 14 -20 30 -20 36 0 7 -9 22 -20 35 -16 19 -21 21 -29 10 -7 -10 -14
-2 -30 33 -11 26 -24 45 -29 42 -5 -3 -10 -31 -11 -63 -1 -31 -3 -58 -4 -60
-4 -3 -81 194 -99 252 -8 23 -20 41 -31 43 -14 3 -17 -4 -17 -37 0 -23 -4 -41
-9 -41 -13 0 -80 172 -86 222 -9 74 -17 108 -26 114 -5 3 -9 -7 -9 -21 0 -15
-4 -24 -10 -20 -5 3 -10 22 -10 42 0 48 -20 163 -32 187 -8 15 -12 16 -19 5
-11 -19 -16 -1 -23 90 -8 96 -15 121 -30 115 -15 -6 -26 63 -26 163 0 66 -13
86 -35 57 -13 -17 -15 -10 -17 61 -1 44 -1 101 0 128 2 35 -1 47 -12 47 -7 0
-17 -10 -21 -22 -13 -39 -25 77 -19 172 4 51 2 96 -5 113 -7 19 -8 50 -1 100
17 126 18 158 6 154 -12 -4 -35 -167 -37 -259 0 -50 -3 -57 -21 -60 -14 -2
-25 -15 -33 -37 -11 -32 -35 -55 -35 -33 0 7 -13 6 -36 -1 -28 -8 -37 -8 -44
3 -9 14 -40 7 -40 -10 0 -6 6 -8 12 -5 7 4 6 1 -3 -7 -9 -7 -20 -26 -26 -43
-6 -18 -18 -31 -30 -33 -15 -2 -22 -13 -26 -36 -7 -46 -34 -106 -47 -106 -6 0
-17 14 -24 31 l-13 31 -27 -53 c-14 -29 -26 -59 -26 -66 0 -7 -8 -21 -18 -31
-10 -10 -24 -32 -31 -49 -7 -17 -21 -39 -32 -49 -17 -15 -19 -31 -18 -153 0
-75 3 -129 6 -121 19 51 129 224 146 228 10 3 14 8 9 11 -6 4 -2 16 10 31 21
24 21 24 15 3 -3 -13 -1 -26 4 -29 5 -3 9 1 9 9 0 10 7 13 20 10 13 -4 20 0
20 9 0 10 14 14 47 15 27 1 57 4 67 9 14 5 17 4 12 -4 -5 -8 0 -12 12 -12 19
0 37 -25 33 -43 -1 -5 4 -5 11 -1 34 21 41 10 54 -74 12 -81 32 -454 25 -467
-2 -5 -4 -39 -3 -76 l2 -67 -41 -7 c-22 -4 -53 -13 -67 -21 -15 -8 -31 -14
-36 -14 -5 0 -17 -6 -25 -14 -9 -8 -29 -16 -44 -18 -16 -3 -32 -10 -36 -17 -5
-7 -19 -11 -32 -10 -13 2 -29 0 -36 -4 -7 -4 -34 -8 -60 -9 -26 0 -54 -5 -62
-12 -8 -6 -16 -10 -18 -8 -1 1 -12 2 -23 2 -20 0 -20 -7 -20 -1195 l0 -1195
1755 0 c1713 0 1755 0 1755 19 0 44 27 83 74 107 44 22 214 64 260 64 33 0 90
-38 78 -53 -5 -7 -8 -32 -5 -57 2 -25 4 -53 4 -63 0 -17 14 -18 202 -15 111 2
211 7 221 12 14 7 17 6 12 -2 -5 -8 0 -12 13 -12 14 0 21 6 21 20 0 13 12 25
37 35 22 9 77 57 133 114 52 55 114 109 138 120 47 24 51 39 28 106 -7 22 -16
64 -20 93 -7 53 -6 53 16 47 35 -11 50 -26 42 -44 -19 -47 -13 -255 11 -425 3
-22 1 -44 -6 -52 -10 -12 40 -14 335 -14 321 0 346 1 331 16 -9 9 -15 26 -13
38 2 16 11 22 41 24 45 4 57 -16 33 -53 l-16 -25 682 0 c376 0 689 4 697 9 13
9 -189 25 -234 19 -19 -3 -20 4 -23 241 l-2 243 -28 -6 c-15 -3 -74 -11 -132
-16 -58 -6 -127 -14 -155 -19 -27 -5 -71 -7 -98 -4 l-48 6 53 34 c29 19 82 63
118 97 36 34 92 87 125 117 101 92 166 160 163 169 -2 5 -37 -23 -78 -62 -41
-39 -118 -110 -170 -157 -52 -47 -106 -96 -120 -108 -14 -13 -30 -23 -37 -23
-6 0 -13 -4 -15 -8 -8 -20 -69 -53 -87 -47 -11 3 -22 2 -25 -4 -11 -16 -321
-24 -466 -11 -74 7 -164 14 -200 15 -36 2 -65 4 -65 4 0 1 33 36 73 78 144
152 313 397 299 435 -2 7 -15 -9 -29 -37 -57 -118 -220 -327 -315 -405 -23
-19 -42 -43 -42 -52 -1 -15 -11 -17 -87 -12 -82 5 -89 7 -123 40 -32 30 -49
39 -73 35 -11 -1 -113 122 -159 194 -160 248 -175 291 -185 525 -5 112 -3 163
9 225 9 44 19 109 22 145 3 36 8 72 10 80 2 8 9 74 15 145 17 209 21 256 31
325 23 160 28 212 34 325 3 66 8 165 11 220 2 55 9 129 15 165 6 36 11 155 11
265 1 169 -2 213 -20 285 -11 47 -23 99 -26 117 -6 36 -3 36 73 -4 56 -29 57
-29 76 7 20 39 19 69 -2 77 -10 3 -37 14 -60 24 -23 11 -47 19 -52 19 -30 0
-4 20 52 40 34 12 70 26 79 31 10 5 25 9 34 9 13 0 75 31 184 92 8 4 44 21 80
36 69 31 145 82 219 148 25 22 75 63 111 90 64 48 216 188 295 271 37 39 45
43 90 43 86 0 176 25 313 89 130 59 154 74 235 146 45 40 58 40 167 -3 67 -26
302 -89 480 -128 36 -8 99 -23 140 -35 41 -11 100 -25 130 -30 53 -10 116 -26
210 -54 25 -7 57 -16 72 -19 l27 -6 -19 -43 c-19 -43 -30 -51 -149 -114 -73
-38 -227 -181 -273 -254 -80 -126 -126 -234 -171 -404 -24 -88 -55 -260 -62
-340 -6 -73 -19 -168 -36 -270 -5 -33 -11 -81 -13 -106 -3 -50 14 -217 45
-440 9 -63 8 -84 -7 -134 -9 -33 -20 -67 -25 -75 -7 -14 -37 -152 -45 -213 -2
-15 -6 -39 -9 -55 -24 -122 -37 -360 -36 -711 0 -256 5 -321 28 -321 12 0 14
7 7 38 -8 41 -8 525 1 697 6 115 7 126 24 215 5 30 12 75 15 100 5 51 31 185
48 248 8 34 13 40 24 31 8 -6 21 -9 29 -5 18 7 19 -10 4 -141 -12 -111 -6
-126 39 -89 16 14 34 26 39 26 6 0 18 10 29 21 10 12 42 37 69 55 72 48 139
96 145 103 3 3 28 24 55 46 28 22 56 45 64 53 56 54 186 70 250 31 l34 -20 -6
-127 c-12 -289 -58 -653 -147 -1162 -10 -58 -15 -108 -11 -112 3 -4 760 -7
1680 -5 l1674 2 27 65 c15 36 39 92 54 125 16 33 41 89 58 125 16 36 49 107
73 157 24 51 58 134 75 185 17 51 37 107 45 123 14 33 66 194 85 265 7 25 29
81 50 125 75 159 112 269 170 500 12 50 54 188 92 309 67 207 111 310 194 447
19 31 34 60 34 64 0 3 17 37 38 73 40 70 77 183 68 208 -3 8 -16 14 -30 14
-19 0 -37 -20 -96 -111 -40 -60 -74 -109 -76 -107 -2 2 1 20 6 39 20 77 41
326 35 414 -11 154 -60 330 -118 424 l-20 34 38 -7 c68 -13 149 -61 249 -146
75 -65 221 -220 244 -260 15 -25 31 -49 37 -55 15 -13 88 -112 111 -150 10
-16 28 -42 40 -57 12 -15 36 -63 53 -105 16 -43 37 -92 45 -109 20 -38 32 -95
20 -93 -22 4 -36 -4 -97 -54 -61 -50 -213 -204 -230 -233 -13 -23 -126 -105
-157 -114 -64 -18 -130 25 -130 84 0 22 12 72 36 154 13 44 -22 23 -51 -30
-15 -29 -37 -66 -49 -83 -12 -16 -39 -75 -60 -130 -91 -240 -129 -343 -146
-390 -10 -27 -38 -107 -64 -176 -25 -69 -64 -177 -85 -240 -21 -63 -56 -157
-78 -209 -22 -52 -62 -158 -88 -235 -26 -77 -59 -165 -72 -195 -125 -281 -253
-604 -253 -641 0 -14 46 -11 57 4 5 6 29 62 54 124 24 61 44 111 45 110 1 -1
-2 -54 -5 -117 -4 -75 -3 -118 4 -123 5 -4 38 -6 72 -6 65 2 67 4 77 56 2 10
11 45 19 78 9 33 18 87 22 120 9 82 32 247 46 320 17 95 56 197 145 384 46 95
96 201 111 235 25 57 133 248 173 307 10 14 36 61 58 105 70 138 333 518 404
582 17 15 42 40 56 57 67 74 206 215 214 215 13 0 9 -28 -4 -34 -8 -4 -9 -8
-3 -11 85 -46 125 -79 163 -131 64 -88 104 -179 70 -157 -20 12 -57 3 -122
-30 -139 -70 -202 -122 -329 -276 -56 -69 -124 -150 -151 -180 -26 -31 -60
-74 -74 -96 -14 -22 -40 -58 -58 -80 -49 -61 -135 -192 -194 -296 -29 -52 -70
-121 -90 -154 -151 -246 -228 -422 -260 -597 -28 -153 -45 -384 -30 -403 9
-11 55 -14 210 -15 181 0 200 1 209 17 6 11 11 13 11 5 0 -10 21 -13 90 -10
50 2 90 0 90 -3 0 -4 45 -7 100 -7 l99 0 -24 63 c-12 34 -31 77 -40 96 -10 18
-28 62 -41 98 -12 36 -41 116 -64 176 -23 61 -43 121 -45 135 -2 14 -16 57
-30 95 -39 101 -40 122 -12 187 48 108 140 264 206 348 37 47 75 98 85 115 29
44 188 206 240 243 l46 33 21 -48 c12 -26 26 -57 30 -68 4 -11 17 -40 28 -65
11 -25 23 -58 26 -73 4 -15 11 -27 15 -27 5 0 16 -26 25 -57 9 -32 23 -70 31
-84 7 -15 25 -67 40 -116 14 -48 34 -117 45 -153 11 -36 22 -76 25 -90 3 -13
11 -38 18 -55 17 -38 38 -108 40 -132 1 -10 10 -45 19 -78 51 -175 96 -356
143 -570 9 -38 24 -91 35 -117 21 -52 24 -72 9 -63 -12 8 -13 9 4 -47 11 -35
12 -48 3 -51 -18 -6 20 -45 67 -69 21 -11 44 -24 50 -29 6 -5 40 -31 76 -58
90 -67 160 -144 205 -226 21 -38 60 -107 86 -152 27 -45 49 -89 49 -97 0 -14
202 -16 1928 -16 l1927 0 32 58 c26 47 33 74 39 146 7 84 6 87 -15 93 -20 5
-31 43 -13 43 20 0 61 127 67 205 7 78 6 81 -23 118 -31 39 -48 89 -37 107 3
5 24 10 46 10 49 0 119 -43 120 -74 1 -23 5 -47 14 -83 9 -38 25 -16 25 35 0
36 6 52 27 74 15 15 32 28 39 28 15 0 23 -40 14 -66 -15 -41 14 -46 54 -9 14
13 26 29 26 35 0 6 12 36 26 66 20 43 25 64 20 97 -3 23 -8 78 -11 122 -14
220 -22 268 -44 286 -11 9 -21 20 -21 24 0 4 -10 15 -22 24 -18 15 -19 18 -5
24 9 3 19 2 22 -3 10 -17 33 -11 31 7 -3 18 -26 31 -26 15 0 -5 -10 -9 -22 -8
-18 1 -24 9 -30 41 -4 22 -11 55 -14 73 -4 21 -3 32 5 32 6 0 11 5 11 11 0 5
-4 8 -10 4 -10 -6 5 23 32 65 9 14 21 59 26 100 12 93 26 130 49 130 15 0 16
2 3 10 -12 8 -9 10 11 10 25 0 26 -2 22 -42 -3 -24 -11 -52 -18 -64 -24 -37
-47 -118 -50 -176 -2 -32 1 -55 6 -52 5 3 9 -4 9 -15 0 -26 15 -34 30 -16 12
15 40 133 40 175 0 14 15 51 33 82 71 125 95 164 111 177 9 7 16 20 16 27 0 8
5 14 10 14 6 0 10 6 10 13 0 8 9 22 20 32 12 11 20 31 20 51 l0 32 35 -11 c51
-15 62 -1 47 63 -7 28 -19 58 -27 66 -23 23 -18 104 7 104 15 0 118 -111 160
-172 21 -31 45 -59 54 -62 16 -6 64 20 64 36 0 5 5 6 11 2 11 -7 7 -126 -6
-199 -6 -28 -23 -162 -27 -209 -2 -28 13 -86 22 -86 4 0 13 -14 20 -30 7 -17
16 -30 20 -30 4 0 13 -15 21 -33 13 -32 101 -170 137 -216 l19 -24 17 24 c9
13 16 28 16 34 0 5 9 21 20 35 16 20 22 22 29 11 15 -23 -9 -101 -31 -101 -5
0 -7 -4 -4 -8 3 -5 1 -35 -3 -67 -6 -41 -4 -69 4 -90 22 -54 14 -134 -36 -345
-11 -44 -13 -210 -3 -219 3 -3 9 1 15 9 7 11 8 6 3 -15 -7 -27 -6 -29 9 -16 9
7 15 17 12 21 -3 4 3 14 12 21 9 8 17 12 19 9 3 -6 25 34 120 218 l64 123 0
859 0 860 -23 5 c-13 4 -63 8 -113 10 -49 2 -113 4 -142 6 l-54 3 5 36 c4 34
4 34 -6 7 -10 -26 -37 -38 -37 -17 0 6 5 10 12 10 6 0 3 6 -8 14 -17 13 -19
27 -19 168 1 185 12 400 24 482 6 34 15 108 20 166 24 229 32 295 40 303 4 4
6 -6 3 -23 -3 -18 0 -30 7 -30 6 0 11 -8 11 -17 0 -11 3 -14 8 -7 4 6 15 13
25 17 14 5 17 13 11 29 -15 49 -14 51 6 9 11 -24 22 -53 24 -65 2 -11 1 -15
-1 -8 -4 10 -8 9 -19 -5 -11 -15 -13 -15 -8 -2 6 19 -11 35 -21 19 -3 -6 3
-21 13 -35 11 -14 22 -22 24 -18 3 5 4 3 2 -3 -1 -6 3 -17 9 -25 7 -7 0 -5
-15 4 -35 22 -36 12 -3 -19 30 -28 32 -39 5 -24 -11 6 -20 8 -20 5 0 -11 28
-35 40 -35 6 0 9 -4 6 -9 -9 -13 18 -111 33 -120 7 -4 9 -15 5 -26 -5 -12 -4
-16 4 -11 8 5 10 -11 7 -54 -3 -40 -1 -60 6 -60 6 0 9 9 6 20 -3 11 -1 20 3
20 5 0 10 -15 12 -33 2 -18 8 -31 15 -30 10 2 41 -61 47 -97 8 -51 40 -149 47
-144 5 3 9 1726 9 3870 l0 3864 -2121 0 c-1166 0 -2119 -3 -2117 -7 2 -5 17
-35 35 -68 17 -33 36 -80 43 -105 12 -44 64 -130 79 -130 4 0 65 29 135 64
l126 65 14 -27 c7 -15 11 -33 9 -40 -3 -7 0 -26 6 -42 5 -17 6 -30 2 -30 -5 0
-12 10 -16 23 -12 41 -17 -1 -6 -53 16 -74 14 -223 -3 -262 -22 -49 -62 -176
-104 -325 -35 -127 -45 -149 -55 -120 -2 6 -2 -1 1 -18 6 -35 6 -26 -3 -144
-7 -77 -6 -93 6 -89 7 2 16 15 20 29 l6 24 11 -28 c13 -30 46 -382 38 -395 -3
-5 1 -57 9 -118 54 -427 76 -616 72 -620 -2 -2 -16 27 -31 66 -27 67 -46 96
-46 68 0 -8 4 -18 9 -24 24 -25 70 -159 77 -224 4 -43 11 -70 18 -70 9 0 10
16 4 63 -4 34 -10 87 -13 117 -10 91 -24 218 -39 350 -8 69 -18 161 -21 205
-4 44 -9 83 -11 86 -2 4 -8 74 -14 155 -5 82 -12 169 -15 194 -4 31 -2 40 4
30 15 -24 51 -305 51 -396 0 -46 4 -85 9 -88 4 -3 11 -34 14 -68 20 -200 40
-327 63 -400 40 -128 57 -131 43 -9 -4 41 -5 90 0 110 l8 36 32 -70 c41 -87
71 -171 71 -199 0 -21 15 -52 70 -155 16 -30 27 -58 24 -63 -3 -4 5 -64 16
-133 11 -69 17 -131 13 -138 -10 -16 -6 -89 7 -138 12 -44 11 -121 -2 -113 -9
6 -50 142 -67 219 -6 28 -15 68 -20 90 -9 39 -9 39 -10 8 -2 -65 76 -354 99
-368 5 -3 6 -13 3 -21 -3 -9 0 -20 8 -25 12 -8 12 -10 0 -18 -9 -6 -11 -18 -7
-35 4 -17 2 -26 -5 -26 -8 0 -6 -7 4 -18 15 -16 15 -18 -3 -18 -14 0 -20 7
-20 21 0 12 -3 25 -7 29 -12 11 -41 115 -34 118 4 2 -1 28 -10 58 l-18 55 0
-56 c-1 -32 8 -81 20 -115 22 -65 49 -180 54 -234 2 -19 4 -35 5 -35 1 0 3 -8
5 -17 2 -12 -3 -18 -14 -18 -13 0 -21 14 -31 56 -8 33 -16 50 -21 42 -10 -19
1 -91 19 -123 4 -5 7 -16 8 -25 4 -24 21 -83 33 -114 7 -18 16 -26 26 -23 11
5 12 1 6 -16 -12 -31 -41 -35 -41 -5 0 13 -5 30 -11 38 -10 15 -8 -9 7 -70 4
-18 0 -31 -16 -45 -21 -19 -21 -19 -56 21 -19 21 -78 93 -131 159 -53 66 -101
125 -107 130 -16 15 -88 104 -108 134 -23 34 -22 69 2 106 14 22 20 47 20 90
0 112 -74 346 -127 400 -11 11 -30 59 -42 105 -13 47 -29 101 -37 120 -7 19
-21 109 -29 200 -26 257 -46 370 -99 545 -15 50 -32 108 -38 130 -5 22 -14 49
-18 60 -5 11 -13 38 -18 60 -18 68 -69 206 -85 223 -7 9 -31 46 -53 82 -21 35
-56 89 -77 120 -21 30 -57 84 -81 120 -23 36 -68 93 -99 125 -31 33 -57 63
-57 66 0 12 -165 146 -215 174 -116 66 -175 94 -211 100 -22 4 -68 16 -104 28
-56 19 -88 22 -220 22 -121 0 -166 -4 -205 -17 -41 -15 -84 -18 -235 -17 -253
2 -416 -21 -535 -76 -108 -49 -181 -86 -210 -108 -17 -12 -62 -45 -101 -73
-39 -29 -112 -91 -163 -139 -73 -70 -99 -103 -126 -159 -19 -39 -46 -91 -59
-116 -56 -101 -116 -260 -135 -355 -11 -55 -32 -138 -45 -185 -26 -89 -56
-254 -61 -330 -2 -25 -8 -92 -14 -150 -18 -166 -20 -195 -26 -365 -5 -157 -12
-226 -34 -315 -14 -58 -28 -187 -25 -245 1 -27 -3 -45 -10 -45 -6 0 -19 -18
-29 -40 -11 -22 -34 -52 -54 -67 -19 -15 -48 -46 -65 -70 -16 -25 -32 -42 -35
-39 -3 3 -1 11 4 18 19 24 31 75 22 89 -7 11 -9 9 -9 -7 0 -19 -71 -169 -89
-187 -8 -8 4 83 19 141 7 27 5 35 -13 47 -25 17 -47 4 -47 -28 0 -27 -78 -197
-101 -222 -18 -18 -19 -18 -19 -2 0 10 4 37 9 60 5 23 15 68 22 100 9 42 22
67 49 95 38 39 60 93 124 305 41 134 39 127 26 127 -5 0 -10 -9 -10 -20 0 -10
-4 -29 -10 -42 -5 -13 -28 -83 -51 -156 -55 -177 -72 -210 -113 -216 -23 -3
-56 -37 -56 -57 0 -41 -103 -277 -143 -327 -13 -16 -27 1 -27 34 0 47 -94 134
-144 134 -30 0 -30 -1 -27 185 3 227 -12 356 -57 490 -93 278 -251 525 -413
647 -79 59 -99 72 -236 143 -77 40 -98 62 -47 49 20 -5 27 2 53 53 16 33 36
60 43 61 41 3 88 32 88 54 0 18 63 98 77 98 8 0 25 11 39 25 13 14 31 22 39
19 9 -4 18 1 22 12 15 37 95 165 100 161 7 -8 -46 -150 -64 -169 -16 -18 -12
-48 7 -48 6 0 20 21 33 48 29 62 49 78 61 49 7 -18 11 -12 20 38 13 69 71 169
93 161 8 -3 21 3 30 14 10 11 23 20 31 20 7 0 15 7 18 15 4 8 15 15 25 15 11
0 24 11 31 25 6 14 14 25 18 25 4 0 13 15 20 33 31 77 91 197 100 197 12 0 5
-52 -16 -111 -17 -47 -16 -67 5 -55 5 3 17 30 27 59 32 97 44 121 57 108 6 -6
14 -11 18 -11 10 0 49 68 49 86 0 15 60 141 96 201 10 18 27 34 36 37 10 2 18
13 18 25 0 14 6 21 19 21 19 0 19 -2 5 -35 -25 -61 -14 -52 19 15 18 36 39 65
47 65 8 0 18 15 24 33 9 32 25 44 27 20 0 -7 9 7 20 31 18 41 21 43 33 26 12
-17 15 -14 30 36 21 70 40 99 31 47 -6 -36 7 -53 18 -25 3 6 6 -12 6 -41 1
-33 5 -51 11 -47 5 3 10 23 10 43 0 24 7 43 19 54 10 9 26 40 36 69 9 30 23
59 29 64 7 6 18 26 25 45 16 49 59 110 75 110 15 0 58 67 71 110 4 14 14 29
20 35 7 5 27 44 45 85 17 41 34 81 37 88 4 9 -432 12 -2162 12 -2100 0 -2168
-1 -2152 -18 10 -10 17 -24 17 -30 0 -7 6 -12 14 -12 8 0 16 -10 18 -22 2 -13
9 -22 17 -20 15 3 88 -73 97 -102 6 -19 -13 -39 -28 -30 -5 3 -21 9 -36 13
-27 8 -27 8 -23 -33 3 -26 6 -33 9 -18 4 28 13 28 41 -2 12 -13 33 -23 46 -23
33 0 85 -40 86 -66 0 -20 1 -20 8 -4 6 17 11 14 44 -22 35 -39 46 -61 29 -61
-8 0 -54 30 -62 41 -3 3 -14 3 -25 -1 -18 -7 -17 -9 10 -21 17 -7 32 -13 35
-14 3 0 19 -8 35 -17 31 -17 44 -31 84 -86 26 -37 21 -55 -7 -29 -10 10 -22
17 -27 17 -5 0 -17 7 -27 17 -10 9 -18 11 -18 6 0 -17 62 -60 96 -67 34 -8 67
-59 164 -254 25 -50 48 -91 52 -91 4 -1 4 7 1 17 -4 9 30 -28 74 -83 84 -104
153 -176 153 -159 0 5 -17 27 -38 49 -44 46 -176 219 -216 283 l-27 44 23 -7
c28 -9 19 0 59 -65 39 -65 69 -106 69 -94 0 5 -9 23 -20 39 -32 47 -91 167
-79 159 15 -9 99 -140 99 -153 0 -6 6 -11 13 -11 6 0 37 -28 67 -62 30 -34 78
-87 106 -119 29 -31 60 -69 69 -83 26 -40 31 -23 6 20 -25 41 -14 70 12 32 8
-13 29 -38 46 -56 17 -19 49 -59 70 -90 45 -65 98 -119 108 -109 4 4 -8 22
-26 41 -28 28 -30 34 -16 40 15 5 14 10 -10 42 -15 19 -24 38 -20 42 4 4 15
-4 24 -18 9 -13 50 -63 91 -110 41 -47 85 -99 97 -115 l23 -30 -16 40 c-18 45
-45 86 -83 129 l-26 28 32 -16 c18 -9 40 -30 48 -46 9 -17 20 -28 25 -25 14 9
67 -81 75 -126 4 -24 12 -39 21 -39 11 0 13 7 8 28 -4 15 -5 25 -2 22 3 -3 46
-53 97 -112 50 -60 96 -108 101 -108 21 0 8 23 -38 73 -54 58 -142 165 -142
173 0 12 70 -49 75 -66 3 -9 15 -26 27 -36 21 -19 21 -19 14 1 -5 11 -11 29
-14 40 -5 19 -3 18 20 -3 14 -13 48 -57 74 -97 27 -41 50 -72 52 -70 2 1 -6
23 -18 47 -20 42 -20 42 -1 18 11 -14 21 -28 21 -32 0 -3 13 -11 29 -16 16 -6
41 -26 56 -46 15 -20 33 -36 40 -36 7 0 18 -7 25 -16 10 -11 23 -14 50 -9 35
6 37 5 55 -36 30 -66 54 -92 71 -78 11 9 18 9 26 1 19 -19 30 -14 23 9 -5 14
26 -8 88 -62 52 -46 94 -85 93 -86 -1 -1 -32 9 -69 22 -78 29 -262 55 -380 55
-118 0 -334 -26 -387 -45 -38 -14 -90 -29 -171 -49 -29 -7 -152 -58 -204 -84
-132 -66 -292 -222 -427 -417 -66 -96 -87 -135 -80 -154 3 -9 0 -11 -8 -6 -8
5 -11 4 -6 -3 3 -6 -9 -64 -29 -129 -22 -75 -41 -165 -50 -248 -17 -145 -34
-402 -30 -426 3 -16 8 -173 6 -197 -1 -10 -12 -12 -45 -7 -58 9 -80 -5 -106
-62 -17 -38 -21 -71 -23 -160 l-2 -112 -20 24 c-14 18 -24 22 -34 16 -15 -10
-13 -31 13 -113 8 -27 13 -48 11 -48 -3 0 -39 52 -80 115 -85 129 -157 269
-148 291 3 8 -1 14 -10 14 -9 0 -19 10 -22 23 -13 44 -35 85 -50 91 -8 3 -15
15 -15 26 0 11 -4 20 -10 20 -13 0 -13 -19 4 -121 8 -47 11 -101 7 -118 -6
-31 -9 -28 -107 121 -55 84 -111 174 -124 200 -14 26 -27 43 -31 37 -3 -6 -11
-4 -19 6 -9 11 -11 32 -6 73 4 31 9 84 12 117 3 33 9 86 15 118 14 78 10 349
-7 428 -50 250 -89 362 -177 506 -133 221 -149 239 -402 463 -75 67 -244 182
-285 195 -14 4 -43 19 -65 34 -52 35 -158 86 -215 105 -25 8 -80 28 -122 45
-89 35 -187 49 -388 56 -117 5 -171 1 -313 -20 -300 -44 -348 -57 -559 -161
-221 -109 -261 -136 -459 -313 -175 -157 -258 -241 -314 -321 -21 -30 -47 -63
-57 -74 -28 -31 -111 -207 -152 -324 -89 -256 -116 -412 -111 -632 6 -202 29
-323 91 -465 10 -22 17 -44 15 -49 -1 -4 6 -14 15 -20 14 -11 10 -14 -25 -26
-23 -7 -41 -17 -41 -22 0 -10 -4 -10 50 6 35 11 45 18 43 34 -3 21 22 38 32
22 7 -11 35 -2 35 11 0 5 -16 9 -36 9 -32 0 -35 2 -23 16 9 12 24 15 50 11 29
-4 42 0 55 14 16 18 15 19 -10 29 -15 5 -32 10 -38 10 -6 0 -8 3 -4 7 12 12
90 3 107 -13 10 -9 20 -11 23 -6 8 13 -13 29 -49 38 -24 6 -26 8 -11 14 33 11
104 4 121 -13 31 -32 47 -17 20 19 -19 25 -19 31 4 37 20 5 71 -38 71 -61 0
-7 5 -12 10 -12 14 0 13 23 -2 38 -9 9 -9 15 -1 23 8 8 21 0 47 -28 19 -21 38
-46 41 -55 7 -20 25 -25 25 -7 0 6 -5 19 -10 30 -7 11 -7 19 -1 19 5 0 19 44
31 98 22 96 81 298 99 337 5 11 14 36 20 55 15 50 96 172 175 265 138 162 242
240 446 334 63 30 117 56 120 58 2 2 9 45 15 96 l10 92 306 3 307 2 7 -89 c4
-50 12 -94 19 -100 6 -5 51 -25 100 -45 129 -53 200 -91 296 -157 90 -61 233
-198 299 -286 38 -51 123 -200 168 -296 25 -53 83 -244 83 -273 0 -14 3 -15
12 -6 21 21 31 13 24 -20 -3 -17 -3 -29 0 -25 4 4 13 2 20 -4 9 -7 15 -1 24
25 11 35 36 63 46 53 3 -3 1 -15 -6 -26 -15 -30 4 -26 24 4 9 14 24 25 32 25
14 0 14 -3 4 -15 -23 -28 -3 -27 25 0 14 15 29 24 33 20 4 -3 -4 -15 -18 -25
-30 -24 -24 -25 23 -5 53 22 79 18 35 -5 -20 -11 -40 -24 -43 -30 -9 -14 2
-12 28 4 29 18 103 30 111 18 3 -5 -14 -13 -39 -16 -24 -4 -47 -11 -50 -16 -7
-12 47 -22 79 -14 15 3 26 2 26 -4 0 -5 11 -13 24 -16 29 -7 45 -44 25 -58 -8
-5 -31 -7 -51 -6 -21 2 -38 0 -38 -3 0 -10 50 -19 83 -14 15 2 27 -1 27 -6 0
-5 -5 -9 -12 -9 -6 0 -8 -3 -5 -6 4 -4 14 -1 23 7 14 11 16 10 12 -11 -3 -26
-1 -26 -86 -16 -27 4 -41 2 -37 -4 3 -6 13 -10 21 -10 8 0 22 -4 32 -9 9 -6
28 -12 42 -15 66 -15 64 -49 -3 -41 -44 6 -38 0 28 -27 29 -11 29 -12 6 -16
-19 -3 -21 -6 -10 -13 11 -7 8 -9 -9 -9 -13 0 -20 4 -17 10 3 6 -1 7 -9 4 -24
-9 -19 -23 12 -30 60 -13 63 -15 57 -35 -4 -11 -2 -19 4 -19 13 0 15 -36 3
-44 -5 -3 -22 8 -37 24 -28 30 -55 39 -55 20 0 -5 15 -17 33 -27 24 -13 28
-18 15 -21 -27 -5 -22 -20 15 -38 17 -10 27 -19 20 -21 -7 -2 -21 1 -32 7 -29
15 -27 -1 4 -50 24 -38 21 -56 -5 -25 -23 28 -31 3 -10 -32 22 -38 19 -56 -8
-46 -14 5 -15 3 -4 -8 6 -7 12 -20 12 -29 -1 -8 -7 -3 -16 13 -8 15 -12 32 -9
37 3 6 -1 7 -9 4 -19 -7 -19 -12 -1 -44 18 -31 19 -48 3 -32 -19 19 -33 14
-16 -5 12 -15 13 -22 3 -41 -12 -22 -13 -21 -29 21 -9 23 -16 48 -16 55 0 13
-16 16 -23 4 -3 -4 3 -25 14 -46 24 -51 24 -64 -1 -41 -42 38 -18 0 28 -44
110 -106 222 -304 222 -391 0 -32 -31 -102 -58 -133 -22 -24 -77 -47 -116 -47
-17 -1 -57 -7 -89 -14 -66 -16 -61 -20 -94 79 -37 110 -37 121 1 143 45 27 54
66 28 126 -13 28 -36 56 -63 75 -62 46 -70 61 -57 105 9 27 9 39 0 48 -9 9
-12 9 -13 -2 0 -28 -49 164 -69 275 -11 61 -24 124 -29 140 -5 17 -12 47 -16
67 -3 20 -15 63 -25 95 -11 32 -31 106 -45 165 -15 69 -42 145 -75 213 -27 58
-50 109 -50 113 -3 51 -200 314 -281 372 -135 99 -328 201 -465 248 -148 51
-478 70 -633 37 -83 -17 -241 -89 -313 -142 -28 -20 -79 -55 -112 -76 -58 -38
-200 -175 -234 -227 -9 -14 -40 -55 -69 -93 -51 -67 -93 -157 -93 -200 0 -13
-4 -27 -8 -32 -8 -9 -20 -46 -54 -165 -7 -25 -13 -63 -14 -85 -2 -39 -19 -134
-69 -370 -30 -148 -55 -319 -55 -385 0 -42 -3 -48 -17 -43 -13 5 -15 2 -11
-15 4 -15 2 -19 -8 -15 -8 3 -14 11 -14 19 0 15 -12 19 -23 7 -4 -3 -2 -12 4
-20 8 -9 8 -13 0 -13 -6 0 -16 9 -23 20 -13 20 -38 28 -38 12 0 -19 58 -62 84
-62 l27 0 -8 -97 c-4 -54 -7 -142 -6 -195 0 -54 -2 -98 -6 -98 -4 0 -27 12
-52 28 -54 33 -76 43 -176 79 -75 26 -148 33 -248 22 -43 -4 -105 11 -105 26
0 7 -4 15 -9 17 -14 4 -15 76 -3 116 13 40 -1 34 -18 -8 -17 -40 -30 -29 -31
28 -2 34 -3 39 -6 17 -8 -51 -21 -50 -16 2 3 36 2 44 -6 33 -8 -11 -11 -3 -11
35 0 61 -19 99 -21 45 -2 -30 -3 -31 -6 -7 -2 15 -9 27 -14 27 -5 0 -9 15 -9
33 1 42 -15 150 -30 207 -6 25 -12 68 -12 95 0 28 -2 39 -4 25 -12 -66 -15
-74 -25 -59 -5 7 -8 59 -8 113 1 81 -2 102 -15 111 -9 7 -16 17 -16 24 0 17
-27 13 -47 -7 -10 -10 -31 -24 -48 -31 -16 -7 -37 -17 -46 -21 -10 -5 -21 -4
-28 3 -8 8 -11 8 -11 -1 0 -6 -6 -9 -14 -6 -7 3 -20 -2 -29 -10 -9 -9 -19 -16
-22 -16 -4 0 -23 -16 -42 -35 -19 -19 -39 -35 -44 -35 -5 0 -9 -6 -9 -14 0 -8
-7 -16 -15 -19 -8 -4 -21 -23 -30 -43 -11 -26 -19 -34 -30 -30 -11 4 -14 2 -9
-6 5 -7 7 -26 6 -43 -2 -21 1 -26 7 -16 7 10 9 7 8 -12 -3 -41 -15 -32 -30 21
-8 26 -20 47 -28 48 -8 0 -32 9 -54 20 -67 35 -246 71 -282 57 -13 -5 -14 2
-9 43 6 53 18 171 19 192 0 7 13 24 29 37 15 13 28 31 28 39 0 8 13 30 28 48
16 18 46 59 67 91 24 38 43 57 54 55 9 -2 15 -11 15 -20 -1 -11 4 -14 14 -11
10 4 13 2 8 -5 -5 -9 6 -12 36 -13 24 0 62 -1 86 -3 24 -1 45 1 48 6 3 5 22 6
42 2 35 -7 36 -6 22 11 -14 17 -13 18 28 12 28 -5 42 -4 42 4 0 7 8 9 23 4 12
-4 33 -8 47 -10 33 -4 98 -47 93 -62 -2 -6 5 -17 17 -23 16 -9 19 -15 11 -24
-8 -10 -7 -17 4 -26 8 -7 15 -9 15 -4 0 5 4 4 8 -3 5 -8 13 -9 22 -3 13 8 12
10 -2 10 -10 0 -18 5 -18 11 0 6 7 9 15 6 8 -4 17 -2 20 3 4 6 0 10 -7 11 -7
0 -1 5 15 11 15 5 27 14 27 19 0 12 -17 12 -25 -1 -3 -6 -12 -10 -18 -10 -7 0
-2 8 10 18 18 14 22 25 19 65 -1 26 1 47 5 47 4 0 5 19 3 43 -8 82 -12 461 -5
417 8 -45 8 -45 11 -10 5 57 7 64 15 84 5 11 3 21 -4 26 -10 5 -11 40 -7 136
7 144 12 180 32 242 8 24 12 47 9 51 -2 5 11 67 30 139 19 73 35 139 35 148 0
29 -17 5 -23 -33 -4 -21 -14 -67 -22 -103 -33 -133 -56 -236 -62 -273 -9 -56
-23 -55 -23 2 0 28 3 51 8 51 4 0 7 44 7 98 0 53 3 102 7 107 9 13 5 81 -5 91
-4 4 -7 -3 -7 -15 0 -16 -4 -21 -14 -18 -8 3 -17 1 -19 -6 -9 -22 4 211 13
239 6 20 7 6 3 -42 -4 -48 -2 -74 6 -78 7 -5 11 5 11 31 0 21 2 63 5 93 3 30
3 49 -1 42 -14 -29 -20 2 -11 55 5 32 10 92 11 133 1 41 6 104 11 139 6 50 5
65 -6 72 -11 7 -11 9 2 9 9 0 19 7 22 14 4 10 1 13 -9 9 -15 -6 -11 9 20 76 8
18 8 25 -1 28 -8 3 -9 13 -2 36 13 46 11 54 -11 60 -32 8 -34 34 -15 131 19
98 65 222 96 259 22 26 25 16 5 -16 -20 -32 -29 -90 -13 -84 6 2 11 17 10 32
-1 15 4 37 12 49 20 27 19 46 -1 46 -13 0 -15 7 -9 38 4 20 13 48 21 62 7 14
28 70 45 125 17 55 41 118 52 140 12 22 20 43 19 47 -1 4 5 25 13 47 18 51 9
54 -11 4 -36 -89 -78 -183 -81 -180 -7 8 41 147 51 147 6 0 5 4 -3 9 -12 8 -9
21 19 76 18 36 38 68 42 72 5 3 46 -30 91 -74 45 -43 103 -96 129 -117 l48
-38 -20 -28 c-24 -33 -25 -40 -6 -40 8 0 40 40 71 90 31 49 61 92 65 95 9 6
-37 -120 -73 -197 -17 -35 -25 -44 -34 -36 -7 6 -13 7 -13 2 0 -4 -12 3 -27
17 -50 45 -63 53 -63 39 0 -18 77 -90 96 -90 10 0 13 -6 10 -17 -3 -10 -15
-54 -26 -98 -11 -44 -29 -111 -40 -150 -35 -123 -110 -398 -129 -475 -11 -41
-27 -102 -35 -136 -28 -105 -13 -130 18 -32 18 55 146 321 152 315 2 -2 -14
-62 -35 -133 -21 -71 -53 -203 -71 -294 -17 -91 -35 -187 -41 -213 -12 -62
-12 -134 1 -142 5 -3 9 16 9 49 -1 29 1 62 4 72 3 11 8 40 12 66 3 26 10 69
15 95 6 26 14 72 20 100 18 104 60 260 96 358 48 133 59 173 51 181 -9 9 4 32
-107 -188 -52 -102 -96 -186 -96 -185 -3 3 94 357 117 427 11 35 34 114 49
175 34 128 96 319 138 423 16 39 26 72 21 72 -17 0 -9 18 10 23 11 2 31 28 46
57 28 55 26 80 -3 39 -9 -13 -27 -37 -39 -54 -12 -16 -41 -58 -64 -92 -24 -34
-44 -61 -46 -59 -12 11 85 186 151 274 80 107 94 149 25 75 -21 -23 -39 -36
-39 -29 0 33 37 94 115 193 47 59 85 111 85 115 0 22 -43 3 -74 -34 -37 -43
-46 -42 -21 2 8 14 14 28 15 33 0 4 -972 7 -2160 7 l-2160 0 0 -2050z m16182
855 c46 -71 95 -152 107 -180 12 -27 27 -58 32 -67 5 -10 9 -20 9 -22 0 -8
-54 11 -120 42 -99 47 -146 56 -202 38 -27 -8 -48 -11 -48 -8 0 15 30 104 68
202 22 58 43 114 46 124 8 24 5 28 108 -129z m-13351 -104 c0 -9 3 -25 6 -36
3 -11 7 -92 8 -180 1 -172 9 -225 30 -225 9 0 14 -12 13 -37 0 -49 21 -224 32
-262 4 -16 5 -33 2 -37 -4 -4 -2 -4 4 -1 10 6 60 -31 52 -38 -2 -1 -28 1 -58
5 -30 4 -95 8 -145 9 -49 1 -91 4 -93 6 -2 2 -13 -5 -25 -15 -11 -11 -24 -17
-29 -14 -5 3 -15 -1 -21 -9 -13 -16 -135 -84 -277 -153 -92 -44 -155 -63 -145
-41 4 6 -3 1 -15 -13 -15 -17 -20 -32 -16 -50 19 -80 19 -90 2 -90 -13 0 -16
6 -12 23 3 12 3 16 0 10 -10 -22 -26 -14 -20 10 3 12 3 17 0 10 -4 -8 -12 -8
-32 3 -38 20 -49 18 -55 -11 -2 -14 -2 -23 1 -20 3 3 13 -12 22 -34 10 -21 28
-48 41 -60 24 -22 73 -28 85 -10 3 6 15 -15 26 -47 14 -45 30 -69 66 -102 26
-23 49 -37 51 -31 2 6 -15 27 -38 47 -25 23 -47 54 -56 82 -19 53 -12 100 14
100 22 0 73 38 67 49 -3 4 1 8 9 8 10 0 15 -10 15 -28 0 -46 36 -115 76 -145
29 -23 47 -29 81 -27 83 3 139 64 150 162 4 45 9 58 15 47 5 -9 17 -16 26 -16
15 0 15 2 2 10 -13 9 -13 10 1 10 8 0 21 -6 28 -12 11 -10 12 -10 7 -1 -5 9
-2 11 8 7 9 -3 13 -10 10 -15 -8 -13 10 -11 24 3 9 9 12 9 12 -1 0 -7 5 -9 10
-6 6 3 10 1 10 -5 0 -8 9 -10 25 -6 18 5 25 2 25 -8 0 -8 -5 -18 -10 -21 -6
-4 -8 -11 -5 -16 9 -14 -24 -79 -67 -131 -36 -45 -41 -64 -8 -35 8 6 6 2 -4
-10 -10 -13 -23 -20 -28 -17 -5 3 -18 -2 -29 -12 -10 -9 -19 -14 -19 -10 0 4
-6 4 -12 0 -23 -14 -52 -17 -155 -17 -57 0 -103 -4 -103 -9 0 -5 -6 -6 -12 -2
-7 4 -10 3 -5 -1 24 -27 232 -26 302 1 18 7 19 6 6 -12 -8 -10 -3 -8 11 6 45
44 66 59 75 52 4 -4 5 -3 1 1 -3 5 0 24 8 43 8 19 12 34 10 34 -3 0 5 11 17
24 29 31 79 125 72 135 -2 5 3 11 14 14 10 2 21 14 24 27 3 12 3 20 1 17 -3
-3 -20 1 -37 8 -60 25 -202 55 -276 57 -54 2 -68 6 -55 13 9 6 44 29 78 52
167 116 164 114 223 119 32 3 68 7 81 10 17 3 25 -1 31 -18 21 -56 43 -431 27
-457 -7 -10 -5 -12 4 -6 10 6 11 -1 5 -36 -4 -24 -9 -62 -10 -84 -2 -22 -11
-83 -19 -135 -9 -52 -19 -122 -22 -155 -10 -110 -45 -203 -66 -173 -6 9 -7 6
-3 -9 8 -28 -64 -159 -78 -140 -5 7 -6 3 -2 -10 4 -14 2 -23 -4 -23 -6 0 -11
-8 -11 -19 0 -22 -23 -44 -35 -33 -5 4 -5 2 -2 -4 13 -22 -81 -169 -107 -169
-6 0 -13 -11 -14 -24 -2 -13 -18 -39 -35 -59 -18 -19 -43 -48 -57 -63 -14 -16
-46 -53 -70 -83 -25 -30 -50 -53 -57 -51 -7 2 -15 -1 -19 -7 -4 -7 -3 -8 4 -4
34 21 2 -18 -86 -103 -121 -119 -180 -147 -289 -138 -68 5 -122 28 -249 110
-109 69 -384 323 -377 348 2 4 -3 6 -10 3 -7 -2 -44 25 -82 62 -54 52 -65 68
-54 76 11 8 11 9 -2 5 -11 -4 -37 17 -82 66 -35 40 -90 98 -121 130 -31 33
-56 65 -56 73 0 10 5 12 13 8 9 -6 8 -3 -1 9 -17 20 -40 105 -37 137 1 14 -1
32 -5 40 -5 8 -11 53 -14 100 -3 47 -9 100 -12 118 -5 23 -3 32 7 32 12 0 12
2 1 9 -8 4 -12 14 -11 22 1 8 -3 34 -10 58 -12 42 -10 228 3 361 2 25 5 53 5
63 1 9 7 17 15 17 17 0 26 31 26 88 l0 42 55 0 c54 0 105 -15 105 -32 0 -4 3
-7 8 -6 9 3 120 -70 130 -86 4 -7 16 -18 27 -24 17 -10 15 -11 -20 -12 -56 0
-168 -23 -245 -50 -84 -29 -100 -38 -100 -54 0 -14 42 -46 60 -46 13 0 46 -30
33 -30 -4 0 -3 -4 3 -8 5 -4 23 -32 38 -62 16 -30 37 -64 47 -76 10 -11 19
-24 19 -30 0 -11 65 -64 79 -64 5 0 11 -5 13 -12 5 -15 254 -23 292 -8 43 16
20 31 -47 30 -164 -3 -212 2 -244 22 -18 11 -33 26 -33 34 0 9 -5 12 -10 9 -6
-3 -10 1 -10 10 0 9 -4 13 -10 10 -5 -3 -10 -2 -10 4 0 5 -11 22 -25 37 -26
28 -34 51 -13 38 7 -4 8 -3 4 5 -4 6 -12 8 -18 5 -7 -5 -9 0 -6 14 4 12 2 20
-3 16 -5 -3 -9 -1 -9 4 0 5 10 14 23 19 14 6 28 25 33 44 11 38 46 52 106 42
34 -5 38 -9 38 -34 0 -16 11 -53 24 -82 27 -61 67 -92 134 -103 35 -6 48 -2
82 20 58 38 100 135 77 174 -11 16 -8 16 55 -12 60 -27 78 -53 78 -117 0 -46
-23 -86 -79 -137 l-36 -33 33 18 c54 29 108 108 107 154 -1 25 1 26 20 14 11
-7 43 -16 70 -20 43 -5 55 -3 78 15 15 12 27 28 27 36 0 8 5 14 11 14 5 0 7 4
4 10 -3 5 -1 19 6 31 8 15 8 19 0 15 -6 -4 -11 -2 -11 3 0 16 -36 13 -54 -4
-18 -18 -69 -20 -63 -2 2 6 9 12 14 12 6 0 15 4 20 9 5 6 2 6 -6 1 -11 -6 -13
-4 -8 9 4 10 7 22 7 27 0 6 5 7 12 3 7 -5 8 -3 3 6 -4 7 -8 22 -9 34 -1 19 -9
22 -86 27 -90 7 -123 16 -114 30 3 5 -2 6 -10 3 -21 -8 -108 35 -99 48 3 6 1
8 -4 5 -15 -10 -88 19 -85 33 1 6 -2 9 -7 5 -16 -9 -163 77 -148 88 8 6 6 7
-7 3 -10 -4 -24 -2 -30 3 -16 14 -212 22 -258 12 -31 -7 -38 -6 -38 6 0 8 4
12 9 8 14 -8 20 6 32 87 9 62 8 95 -10 211 -11 75 -23 142 -27 148 -5 8 -2 9
11 1 14 -7 23 -6 33 5 13 12 13 20 3 49 -8 21 -10 47 -5 67 4 17 7 55 6 82 -1
39 1 46 8 30 8 -16 9 -12 5 17 -6 39 16 74 40 64 15 -5 154 -21 172 -19 7 0
11 -2 8 -6 -2 -4 10 -8 28 -8 69 0 353 -58 375 -75 7 -6 15 -8 19 -4 3 3 0 6
-7 6 -7 0 -11 2 -8 5 7 7 192 -57 263 -91 33 -16 59 -34 58 -41 -1 -6 6 -9 17
-6 11 3 17 10 13 16 -4 6 0 8 9 4 9 -3 24 1 35 8 10 8 14 15 8 15 -24 1 309
130 343 132 6 1 12 6 12 11 0 5 9 7 21 4 12 -3 18 -3 15 0 -3 4 58 30 137 58
78 28 151 56 162 62 23 13 45 6 46 -16z m14016 -278 c23 -32 66 -107 98 -168
62 -119 114 -195 182 -265 24 -25 63 -70 88 -101 24 -31 62 -71 84 -88 88 -70
290 -159 431 -190 85 -19 81 -16 68 -53 -12 -34 -74 -113 -182 -229 -33 -37
-119 -133 -191 -215 -237 -272 -368 -388 -463 -410 -31 -8 -71 -14 -89 -14
-61 0 -272 132 -423 266 -95 84 -366 362 -401 412 -45 64 -21 50 41 -23 30
-35 58 -65 63 -65 12 0 8 32 -7 49 -15 17 -77 178 -95 248 -6 23 -18 54 -26
70 -18 34 -19 51 -3 35 13 -13 48 -16 48 -4 0 4 -14 27 -31 50 -53 72 -119
369 -119 536 l0 50 43 -41 c38 -38 82 -63 108 -63 17 0 9 17 -21 50 -16 18
-27 37 -23 43 3 5 1 7 -4 4 -6 -4 -13 -1 -16 7 -4 11 6 16 36 21 23 4 45 12
49 18 4 7 21 7 50 1 42 -9 43 -10 58 -66 21 -80 45 -108 98 -115 54 -7 119 32
129 77 8 43 28 56 56 38 12 -9 62 -27 110 -42 48 -15 87 -30 87 -35 0 -11 69
-40 100 -42 14 -1 46 -1 72 -1 37 2 47 6 47 20 1 9 3 34 4 55 4 38 -8 48 -31
25 -13 -13 -9 -20 -47 96 -23 71 -31 116 -21 116 2 0 21 -26 43 -57z m-3422
-23 c3 -11 10 -20 15 -20 5 0 12 -9 15 -20 4 -11 10 -18 15 -15 4 3 14 -5 23
-18 8 -12 43 -36 78 -54 63 -31 107 -47 259 -93 126 -39 222 -78 248 -102 30
-27 95 -165 86 -180 -5 -7 -2 -8 6 -3 10 6 12 3 8 -13 -4 -14 -2 -20 4 -16 6
4 8 -2 3 -16 -4 -14 -3 -20 3 -16 9 5 30 -33 36 -65 1 -8 5 -23 8 -34 17 -56
18 -76 6 -73 -7 1 -28 -6 -45 -15 -18 -10 -33 -15 -33 -12 0 7 -79 -35 -115
-61 -16 -12 -36 -19 -44 -16 -8 2 -11 0 -7 -6 9 -15 -155 -154 -173 -146 -9 3
-26 8 -38 9 -19 3 -21 0 -13 -15 5 -9 6 -21 2 -25 -4 -5 -2 -5 5 -1 7 4 10 13
6 21 -6 17 -2 18 22 9 14 -6 14 -8 -1 -25 -13 -15 -25 -18 -50 -13 -32 6 -54
-9 -33 -22 8 -4 9 -3 5 4 -8 14 3 15 23 3 10 -7 5 -11 -18 -16 -17 -3 -33 -5
-37 -3 -3 2 -10 -5 -15 -14 -6 -10 -18 -18 -27 -17 -14 0 -13 2 3 8 16 7 13 9
-19 13 -31 3 -35 2 -22 -7 21 -16 21 -26 0 -18 -27 10 -14 -60 14 -72 12 -5
22 -13 22 -17 0 -9 -36 -5 -46 5 -4 4 -17 4 -29 1 -14 -3 -29 1 -39 12 -13 13
-20 14 -29 5 -8 -8 -8 -14 -2 -19 6 -4 16 -18 23 -31 12 -20 12 -25 0 -33 -10
-7 -10 -8 2 -7 8 2 33 -5 55 -15 68 -29 111 -21 127 24 4 10 8 4 12 -15 13
-54 50 -126 81 -158 66 -68 119 -107 127 -94 6 9 10 9 17 -2 7 -11 25 -13 83
-8 74 7 81 8 130 21 23 7 25 10 14 21 -13 13 -65 13 -86 0 -6 -4 -43 -7 -84
-7 -59 -1 -80 3 -109 21 -69 42 -123 131 -136 222 -7 46 -7 47 26 58 18 7 31
16 29 20 -3 4 3 12 12 17 15 10 17 5 18 -47 2 -89 36 -139 116 -173 l63 -27
67 21 c38 11 77 30 87 42 30 32 71 143 71 192 0 39 3 44 25 48 14 3 25 1 25
-5 0 -6 3 -8 6 -4 8 8 73 -19 96 -40 10 -9 18 -26 18 -38 0 -35 -39 -140 -75
-199 -19 -32 -28 -56 -21 -56 15 0 66 58 66 76 0 8 4 14 8 14 5 0 15 11 22 25
12 23 14 23 26 7 7 -9 14 -24 14 -34 0 -9 4 -18 8 -20 4 -1 17 -17 29 -34 20
-27 21 -37 13 -90 -5 -32 -23 -97 -40 -144 -17 -47 -34 -95 -37 -107 -3 -13
-10 -23 -15 -23 -5 0 -8 -6 -7 -12 4 -26 -50 -140 -63 -132 -5 3 -8 0 -6 -8 6
-27 -225 -333 -243 -322 -5 3 -8 1 -7 -4 2 -6 -19 -32 -47 -59 -27 -28 -64
-65 -82 -84 -47 -51 -87 -89 -94 -89 -3 0 -25 -18 -48 -41 -24 -22 -45 -38
-48 -35 -3 3 -16 -8 -30 -25 -14 -16 -31 -29 -38 -29 -7 0 -15 -6 -18 -12 -3
-7 -21 -22 -41 -32 -34 -18 -43 -18 -104 -7 -76 14 -112 27 -160 54 -28 17
-31 22 -20 36 12 14 11 15 -5 2 -16 -12 -21 -12 -45 6 -16 11 -61 38 -100 59
-49 25 -71 42 -68 51 3 8 1 11 -4 8 -14 -9 -52 14 -44 27 4 7 3 8 -4 4 -35
-21 -412 293 -380 317 9 6 8 7 -4 3 -25 -7 -109 82 -103 109 3 11 2 14 -1 8
-9 -21 -27 -15 -21 7 3 11 1 18 -3 15 -14 -9 -41 7 -36 21 3 8 1 13 -3 11 -19
-5 -107 124 -101 149 1 4 -3 10 -9 14 -14 8 -49 106 -61 169 -7 35 -5 51 6 68
18 28 18 30 -1 30 -9 0 -14 -6 -11 -13 3 -8 1 -16 -4 -19 -16 -10 -11 32 5 49
9 8 12 22 8 32 -5 12 -3 15 6 9 10 -5 11 -2 7 13 -4 12 -2 32 5 44 7 13 15 36
18 52 6 25 8 27 19 13 10 -12 10 -18 -2 -30 -19 -19 -3 -36 37 -39 18 -2 49
-25 95 -73 38 -38 72 -71 77 -72 4 -1 11 -5 14 -10 16 -25 220 -75 205 -51 -3
4 0 8 5 8 6 0 11 -4 11 -8 0 -10 147 -9 157 1 3 4 17 7 30 7 16 0 22 -4 17
-12 -4 -7 4 -3 17 9 34 33 16 45 -52 34 -105 -19 -229 -21 -265 -6 -19 8 -34
18 -34 24 0 6 -15 17 -33 26 -35 16 -74 50 -119 102 -30 35 -43 113 -20 121 7
2 10 8 6 13 -3 5 0 9 6 9 6 0 8 5 4 12 -4 7 -3 8 4 4 13 -8 55 11 48 22 -2 4
3 8 12 8 9 0 34 4 55 8 l37 7 0 -38 c0 -40 36 -123 67 -158 42 -47 149 -71
219 -50 84 25 124 84 124 181 0 51 1 54 25 54 14 0 25 -4 25 -10 0 -5 7 -10
16 -10 9 0 23 -8 31 -17 13 -16 13 -16 3 5 -7 15 -7 22 0 22 5 0 10 -4 10 -8
0 -15 74 1 117 25 24 13 43 21 43 17 0 -4 7 -1 15 6 8 7 15 17 15 23 0 6 -7 2
-15 -9 -14 -18 -14 -18 -16 6 -1 14 -1 29 0 33 1 4 -7 3 -17 -2 -30 -16 -171
28 -216 67 -11 9 -16 11 -12 4 8 -13 -19 -4 -166 59 -42 18 -74 37 -71 43 4 5
-1 7 -11 3 -10 -4 -32 0 -49 9 -61 32 -67 34 -97 34 -17 0 -29 3 -27 8 3 4
-18 7 -46 6 -29 0 -63 3 -76 8 -14 5 -27 5 -30 0 -11 -16 -42 -10 -37 7 2 9 7
26 11 38 3 12 8 31 10 42 5 29 74 227 97 283 12 27 25 45 31 41 6 -4 7 -1 2 6
-4 8 2 21 15 33 18 17 24 18 31 7 6 -10 9 -8 9 9 0 12 4 22 10 22 5 0 22 13
37 28 40 40 82 64 99 58 8 -3 12 -1 9 4 -3 5 16 20 42 32 213 97 313 153 358
201 22 23 43 41 48 39 4 -1 6 1 5 6 -1 4 1 17 6 30 9 27 32 29 41 2z m-3580
-445 c44 -7 164 -44 180 -55 6 -4 44 -20 85 -35 41 -16 81 -35 88 -42 7 -7 19
-13 26 -13 7 0 21 -9 31 -20 10 -11 28 -20 39 -20 21 0 109 -49 157 -86 50
-40 149 -140 149 -151 0 -7 6 -16 13 -20 25 -15 66 -79 118 -183 29 -58 63
-122 75 -142 13 -20 28 -54 33 -75 24 -94 34 -129 42 -148 14 -36 18 -70 26
-191 13 -194 6 -409 -13 -422 -29 -21 -84 -171 -84 -232 0 -47 27 -3 55 89 28
95 32 100 71 122 41 22 42 22 74 3 47 -27 70 -63 86 -130 16 -70 19 -157 4
-134 -5 8 -10 27 -10 41 0 41 -32 123 -54 139 -52 38 -88 26 -125 -42 -14 -23
-29 -46 -35 -50 -8 -5 -8 -8 0 -8 6 0 9 -20 6 -54 -2 -30 4 -83 13 -119 16
-64 16 -65 -9 -125 -21 -48 -27 -84 -32 -178 -6 -123 -1 -140 39 -128 25 8 21
-8 -12 -52 -76 -100 -83 -99 -80 14 1 48 6 101 10 117 5 17 10 104 13 195 2
91 8 185 12 209 6 35 4 43 -7 39 -16 -5 -23 -62 -34 -273 -4 -77 -9 -143 -11
-147 -3 -4 -7 -51 -9 -105 -8 -179 -53 -300 -187 -506 -131 -202 -613 -728
-714 -780 -60 -31 -154 -45 -188 -29 -11 6 -38 16 -59 22 -40 13 -119 54 -197
106 -65 42 -287 210 -340 257 -25 22 -129 109 -231 193 -266 219 -322 290
-351 439 -22 118 -47 225 -97 420 -22 89 -41 174 -41 190 0 35 -14 60 -27 52
-14 -9 1 -100 38 -242 32 -123 78 -330 79 -353 0 -7 -4 -11 -9 -8 -5 3 -26 8
-46 11 -88 11 -247 199 -290 341 -17 58 -3 57 19 -1 18 -47 30 -60 45 -50 6 3
4 17 -4 32 -11 21 -12 29 -2 35 8 5 14 -2 19 -20 20 -78 60 -199 73 -218 20
-32 71 -50 91 -33 49 40 36 119 -32 199 -24 29 -45 59 -46 68 -1 9 -2 91 -2
182 -1 154 -3 168 -25 212 -29 56 -99 101 -128 82 -31 -20 -54 -72 -62 -141
-8 -67 -8 -67 -10 38 -2 157 27 210 104 188 63 -18 100 -74 153 -231 9 -27 20
-48 25 -48 24 0 -40 197 -77 237 -18 19 -25 45 -34 118 -16 123 -15 197 3 385
19 197 21 211 55 350 47 189 63 231 151 375 52 87 69 108 162 204 125 128 303
239 442 276 30 8 60 17 65 20 5 3 44 12 87 20 43 8 90 18 104 21 l26 6 12
-219 c6 -120 16 -339 21 -488 6 -148 15 -360 20 -470 5 -109 7 -201 5 -203 -2
-3 -83 -7 -180 -10 l-176 -5 123 -121 c68 -67 172 -166 232 -221 60 -55 114
-105 120 -110 35 -32 114 -94 135 -105 23 -12 27 -9 70 37 25 27 64 71 86 98
22 27 90 102 150 165 197 208 235 250 235 265 0 12 -28 15 -172 17 l-173 3 -6
105 c-4 58 -10 182 -13 275 -4 94 -9 202 -11 240 -3 39 -7 171 -10 295 -3 124
-8 278 -11 344 -6 113 -6 118 12 113 11 -3 37 -8 59 -12z m-9119 -381 c-3 -8
1 -31 9 -50 8 -19 11 -34 7 -34 -4 0 -16 -13 -27 -29 -10 -16 -22 -28 -25 -26
-8 5 -14 -73 -13 -170 1 -98 8 -144 27 -190 7 -16 26 -61 41 -98 16 -37 40
-80 54 -95 55 -58 75 -86 30 -44 -25 23 -61 67 -80 96 -19 30 -42 56 -51 59
-10 3 -18 12 -18 21 0 9 -4 16 -8 16 -4 0 -8 10 -9 22 -1 11 -7 24 -13 28 -11
7 -13 77 -6 170 2 19 7 78 11 130 3 52 11 102 16 112 5 9 9 24 9 33 0 10 10
28 23 41 26 28 31 30 23 8z m13554 -51 c7 -32 16 -63 21 -68 4 -6 4 -16 0 -23
-6 -10 -26 -10 -99 0 -88 12 -90 13 -72 30 11 10 27 15 37 12 15 -5 15 -4 3 5
-12 8 -10 16 19 45 18 19 40 32 47 29 8 -3 14 1 14 11 0 37 18 12 30 -41z
m-1617 -143 c42 -11 65 -30 35 -30 -6 0 -8 -3 -5 -6 4 -4 13 -1 22 6 11 9 15
9 15 1 0 -6 -6 -13 -12 -15 -102 -30 -194 -63 -199 -70 -4 -5 -12 -5 -19 -1
-8 5 -11 4 -7 -2 7 -11 -22 -28 -31 -18 -3 3 0 5 7 5 7 0 9 4 6 10 -3 5 1 23
10 39 8 17 15 38 15 49 0 10 9 28 19 39 11 12 17 24 14 27 -4 3 14 0 38 -8 24
-8 65 -20 92 -26z m1531 -192 c20 -57 -43 -119 -137 -135 -41 -6 -97 12 -97
33 0 8 -6 11 -17 7 -11 -4 -14 -3 -9 5 4 7 2 12 -3 12 -19 0 -12 37 8 43 10 2
41 3 69 0 53 -4 56 -2 100 52 22 26 75 16 86 -17z m-1096 -60 c25 -25 4 -93
-32 -104 -12 -3 -36 -12 -55 -21 -50 -23 -109 -12 -144 27 -45 51 -34 65 50
65 62 0 76 3 95 23 24 24 67 29 86 10z m4459 -130 c1 -156 18 -297 56 -483 14
-66 28 -142 32 -170 7 -48 6 -49 -10 -27 -24 33 -68 29 -124 -12 -86 -63 -234
-161 -294 -194 -32 -17 -67 -42 -78 -55 -29 -35 -24 -9 40 197 33 105 65 220
72 256 14 77 112 297 174 390 24 36 62 104 86 153 24 48 44 87 44 87 1 0 1
-64 2 -142z m827 -73 c9 -24 -16 -115 -31 -115 -7 0 -13 8 -14 18 0 12 -2 13
-6 3 -6 -15 -40 -51 -49 -51 -3 0 -20 -11 -38 -25 -18 -14 -38 -25 -44 -25 -7
0 -12 -4 -12 -9 0 -10 -56 -32 -62 -25 -8 7 -141 13 -152 6 -6 -3 -29 -8 -51
-9 -62 -4 -94 -9 -102 -16 -3 -4 -11 -7 -17 -7 -6 0 -3 5 7 11 9 6 15 15 12
20 -4 5 -11 7 -16 4 -5 -4 -5 3 0 17 5 13 14 22 20 20 15 -3 14 4 -5 23 -15
15 -15 17 2 36 16 18 16 19 1 13 -9 -3 -17 -2 -17 3 0 12 50 36 58 28 3 -3 0
-5 -7 -5 -7 0 -9 -5 -6 -11 12 -19 34 23 23 44 -8 16 -7 17 11 8 26 -15 71
-14 71 1 0 6 -7 20 -17 30 -9 11 -11 18 -5 18 7 0 12 -4 12 -10 0 -14 27 -12
33 3 3 6 6 -1 6 -18 1 -23 -2 -26 -9 -15 -11 17 -13 10 -4 -13 4 -11 20 -14
67 -11 69 4 117 13 132 24 12 9 61 23 95 26 14 2 34 5 45 8 31 8 49 -8 41 -38
-3 -14 -2 -26 3 -26 5 0 8 18 7 40 -1 41 7 52 18 25z m-2037 -62 c38 -52 115
-143 197 -233 91 -99 131 -164 155 -247 10 -37 43 -129 71 -203 29 -74 63
-163 76 -198 13 -35 20 -60 14 -57 -5 3 -10 12 -10 18 0 16 -93 84 -144 107
-23 10 -68 30 -101 44 -33 15 -92 33 -132 39 -67 12 -74 15 -105 56 -94 123
-100 133 -87 142 11 6 11 9 -2 14 -10 4 -13 16 -11 44 4 35 2 39 -22 40 -58 5
-72 4 -101 -4 -21 -5 -27 -4 -20 3 6 5 19 12 30 14 11 2 19 10 18 16 -2 7 4
12 12 12 16 0 39 36 28 43 -7 4 -60 14 -123 22 -14 2 -47 6 -75 10 -27 4 -63
9 -80 10 -16 1 -46 11 -65 22 -28 15 -35 26 -37 51 -1 18 2 30 7 27 4 -3 10 2
13 10 12 29 68 47 149 48 59 1 82 -3 90 -14 7 -11 9 -9 5 9 -4 18 -2 22 9 18
9 -3 14 1 14 12 0 12 6 8 20 -13 23 -35 42 -39 50 -8 5 20 6 19 30 -13 14 -18
33 -36 43 -40 15 -5 17 -16 12 -102 -5 -70 -3 -92 4 -81 6 9 14 107 17 218 4
110 11 201 15 201 4 0 20 -17 36 -37z m-10089 -260 c6 -16 13 -41 17 -58 3
-16 21 -79 41 -140 19 -60 40 -128 46 -150 6 -22 22 -64 35 -94 13 -29 23 -55
23 -56 0 -2 -43 -32 -179 -124 -14 -10 -51 -34 -81 -55 l-55 -37 -3 68 c-1 38
7 117 18 178 11 61 25 133 29 160 24 131 79 335 91 335 4 0 12 -12 18 -27z
m-1198 -380 c13 -32 31 -69 40 -83 16 -24 80 -178 80 -191 0 -4 -50 18 -111
48 -89 44 -109 57 -104 71 4 9 18 63 32 119 14 56 29 100 33 98 4 -3 18 -31
30 -62z m13795 29 c77 -19 163 -38 190 -44 86 -18 115 -34 115 -62 0 -21 -5
-26 -24 -26 -14 0 -27 4 -30 9 -10 15 -120 49 -182 55 -34 3 -74 12 -90 20
-16 8 -57 25 -91 36 -45 16 -60 26 -56 36 3 8 11 14 17 12 6 -2 74 -18 151
-36z m-1346 -190 c-37 -62 -45 -70 -61 -61 -22 12 -102 -2 -148 -26 -36 -19
-70 -73 -70 -113 0 -27 5 -32 33 -40 18 -5 48 -7 66 -4 l33 5 -18 -29 c-18
-29 -70 -99 -89 -120 -5 -7 -17 -20 -25 -30 -70 -87 -115 -134 -130 -134 -22
0 -154 97 -235 172 -58 54 -59 57 -40 71 46 35 -38 115 -133 126 -52 6 -62 11
-98 50 -21 24 -40 47 -42 52 -2 4 16 11 40 14 77 12 160 -24 249 -108 111
-105 131 -117 186 -117 36 0 85 56 101 113 9 37 20 52 47 68 37 22 45 39 20
39 -25 0 -17 26 15 54 18 15 49 28 78 32 26 4 63 13 82 20 33 13 171 43 178
38 2 -1 -16 -34 -39 -72z m-11041 -119 l9 -53 -41 -11 c-129 -33 -163 -46
-214 -78 -32 -20 -74 -47 -94 -60 l-38 -23 0 35 c0 32 5 37 103 98 56 35 105
69 109 75 4 6 34 21 65 34 32 12 65 25 73 30 8 4 16 7 17 6 1 0 6 -25 11 -53z
m-1457 -27 c124 -40 221 -96 240 -136 10 -19 16 -37 14 -38 -2 -2 -45 10 -97
27 -51 17 -129 34 -173 39 l-80 7 8 63 c5 34 10 62 12 62 1 0 36 -11 76 -24z
m-2417 -169 c-26 -15 -64 -62 -64 -79 0 -19 -15 -24 -24 -9 -14 22 -47 18 -78
-10 -24 -23 -33 -27 -40 -17 -5 8 -6 2 -2 -14 8 -37 -3 -78 -21 -78 -8 0 -15
6 -15 14 0 8 -12 29 -27 47 -16 18 -21 30 -13 25 10 -5 9 -3 -2 6 -15 13 -14
15 15 27 18 8 36 13 40 12 5 -1 6 3 2 9 -3 5 5 14 18 19 14 6 28 15 32 21 4 6
16 8 28 5 14 -4 17 -3 10 2 -9 6 5 24 47 61 33 30 68 67 77 83 l18 30 7 -73
c5 -58 3 -75 -8 -81z m3879 36 c-56 -5 -56 -18 0 -18 42 1 42 1 71 -60 27 -56
59 -141 128 -330 25 -71 28 -92 27 -185 -2 -96 -28 -235 -48 -250 -3 -3 -14
-20 -25 -39 -10 -19 -26 -42 -35 -51 -9 -9 -38 -43 -64 -73 -63 -73 -210 -216
-312 -303 -44 -38 -100 -88 -125 -111 -25 -24 -50 -43 -56 -43 -6 0 -18 -7
-25 -16 -41 -50 -187 -82 -279 -63 -67 14 -223 88 -261 123 -39 35 -86 66
-101 66 -18 0 -97 51 -159 102 -26 21 -50 38 -54 38 -6 0 -28 16 -82 60 -7 6
-15 10 -19 10 -10 0 -134 123 -134 133 0 4 -20 33 -45 64 -42 51 -45 59 -41
102 3 25 5 69 6 96 l2 50 10 -35 c9 -35 33 -68 42 -59 3 3 -6 63 -19 134 -27
142 -30 213 -14 320 5 39 12 88 15 110 2 22 5 48 7 58 1 10 7 21 13 25 16 10
24 50 10 56 -6 3 17 3 52 2 67 -4 77 -8 77 -33 0 -12 11 -17 40 -18 111 -3
121 -5 103 -19 -10 -7 -19 -24 -20 -37 -3 -20 1 -24 20 -22 23 3 31 -12 10
-20 -7 -3 -3 -6 9 -6 12 -1 29 9 37 21 15 21 14 24 -10 49 l-27 28 49 -15 c70
-21 90 -38 108 -91 9 -26 23 -59 31 -73 l13 -25 7 28 c4 15 11 27 15 25 5 -2
30 -46 57 -98 46 -90 140 -226 149 -217 3 2 -2 17 -10 33 -8 16 -26 65 -39
109 -14 44 -40 121 -58 172 -33 90 -34 118 -4 93 11 -9 19 -10 26 -3 7 7 2 19
-18 37 -15 14 -31 26 -35 26 -9 0 -40 71 -34 77 2 3 18 -3 35 -11 16 -9 41
-16 54 -16 32 0 36 -6 91 -130 106 -239 201 -414 290 -533 45 -62 52 -77 37
-77 -21 0 -45 -23 -34 -33 10 -11 48 -8 59 3 8 8 20 -1 40 -27 26 -35 103
-113 111 -113 11 0 -1 38 -32 101 -19 40 -34 74 -32 75 2 2 40 -39 85 -91 76
-88 103 -108 116 -87 2 4 -20 47 -50 96 -30 48 -54 92 -52 96 2 5 35 -22 75
-61 68 -65 93 -81 93 -60 0 5 -10 22 -23 38 -116 141 -198 286 -248 436 -17
51 -37 103 -43 117 -24 49 -39 131 -27 143 8 8 11 4 11 -17 0 -21 4 -27 15
-22 8 3 15 1 15 -3 0 -5 -5 -11 -12 -13 -6 -2 3 -19 23 -40 19 -19 51 -63 72
-97 43 -69 77 -86 46 -23 -44 90 -78 280 -51 289 6 3 12 -2 12 -11 0 -21 16
-20 48 2 31 22 142 66 190 77 25 5 32 12 32 30 0 26 15 33 75 32 l40 0 -42 -4z
m-4983 -107 c5 -36 30 -65 30 -34 0 24 50 88 70 88 10 0 32 -11 48 -25 23 -19
32 -37 38 -78 5 -28 9 -56 10 -62 1 -5 2 -16 3 -22 1 -18 21 -16 21 1 0 8 16
28 35 45 27 23 45 31 74 31 45 0 58 -12 86 -83 12 -28 25 -52 31 -54 6 -2 16
14 23 36 15 51 52 81 102 81 32 0 40 -5 58 -34 12 -18 21 -47 21 -64 0 -27 15
-51 25 -40 4 3 13 51 14 75 2 21 62 83 80 83 29 0 60 -43 71 -99 5 -30 10 -55
10 -57 0 -2 5 -4 10 -4 6 0 10 12 11 28 0 15 3 21 6 15 2 -7 13 -13 24 -13 14
0 19 7 20 28 1 15 2 40 3 55 1 30 39 77 61 77 19 0 51 -50 53 -84 2 -32 20
-59 33 -50 5 3 4 14 -2 25 -25 48 23 186 55 159 7 -5 16 -7 19 -4 11 11 24
-38 29 -105 l4 -63 -40 -26 c-56 -35 -154 -71 -258 -92 -66 -14 -118 -17 -220
-14 -310 9 -451 37 -626 126 -68 35 -125 65 -127 68 -1 3 3 34 9 70 11 57 15
65 34 64 14 0 22 5 22 15 1 29 24 -21 30 -63z m1634 -247 c-4 -8 1 -9 17 -4
18 5 20 4 10 -4 -12 -8 -10 -11 12 -16 15 -4 27 -12 27 -19 0 -6 4 -5 9 3 7
11 14 9 35 -13 26 -25 54 -36 42 -17 -4 5 16 1 43 -8 26 -10 64 -21 84 -25 19
-4 41 -13 47 -21 10 -12 16 -13 27 -4 20 17 28 3 9 -16 -20 -20 -20 -25 -1
-25 8 0 14 3 13 8 -6 19 29 52 55 52 18 0 26 4 22 11 -4 6 2 5 14 -3 12 -7 21
-16 21 -20 0 -5 7 -8 16 -8 9 0 12 -5 8 -12 -4 -7 -3 -8 4 -4 18 11 15 36 -3
30 -10 -4 -13 -2 -10 8 11 29 35 16 35 -19 0 -34 0 -35 -42 -31 -40 3 -43 1
-46 -25 -3 -27 -16 -35 -26 -18 -3 5 -22 12 -43 16 -20 3 -57 16 -82 27 -70
31 -84 36 -111 44 -14 4 -43 18 -65 32 -22 15 -44 27 -50 28 -23 4 -85 47 -79
55 3 5 7 9 10 9 3 0 2 -5 -2 -11z m11291 -78 c70 -18 225 -84 225 -96 0 -3
-13 -17 -29 -30 -34 -29 -160 -203 -251 -346 -36 -57 -119 -175 -185 -262 -66
-88 -143 -192 -172 -231 -29 -39 -58 -78 -65 -86 -8 -8 -29 -35 -48 -60 -85
-112 -330 -363 -441 -451 -35 -28 -73 -58 -84 -67 -11 -10 -39 -29 -62 -44
l-42 -27 -28 37 c-16 20 -51 69 -78 107 -27 39 -59 84 -72 101 l-23 31 62 48
c35 27 74 60 88 74 48 49 150 135 178 150 41 23 326 315 393 403 33 42 64 80
69 83 6 4 34 40 63 82 28 42 68 99 87 127 57 81 156 249 165 276 4 14 27 64
51 113 l44 87 43 0 c23 0 74 -9 112 -19z m-283 -32 l21 -11 -24 -20 c-13 -11
-18 -17 -11 -13 15 8 15 6 1 -34 -8 -23 -16 -30 -27 -26 -12 4 -13 3 -2 -10 7
-8 8 -15 3 -15 -5 0 -17 -14 -27 -30 -9 -17 -21 -28 -27 -25 -5 3 -7 0 -4 -7
4 -11 -60 -124 -92 -163 -5 -5 -20 -28 -33 -50 -26 -43 -44 -67 -72 -97 -10
-10 -18 -22 -18 -26 0 -12 -38 -61 -91 -120 -26 -28 -55 -62 -65 -77 l-20 -26
-87 66 c-52 39 -85 70 -81 77 4 6 3 8 -3 5 -12 -7 -44 28 -35 39 4 4 2 5 -3 1
-12 -6 -165 137 -214 200 -18 24 -30 47 -26 53 3 6 0 7 -9 4 -10 -4 -26 10
-48 42 -18 26 -45 61 -59 78 -34 41 -60 91 -51 101 4 5 2 5 -4 2 -14 -8 -29 9
-38 43 -3 14 -3 19 0 12 3 -6 10 -9 15 -6 6 3 15 2 22 -3 62 -47 327 -122 437
-124 63 -1 69 -3 81 -28 7 -14 12 -29 11 -33 -1 -3 6 -12 15 -20 12 -9 15 -9
9 0 -13 21 7 13 37 -15 24 -24 36 -28 85 -27 49 1 101 8 110 15 1 1 7 2 14 3
7 0 13 15 15 31 1 17 5 45 9 63 6 30 9 33 33 28 14 -3 21 -3 14 0 -13 6 15 33
110 102 31 24 62 40 69 36 7 -4 8 -3 4 4 -9 16 28 16 56 1z m-1241 -9 c5 0 9
-6 9 -14 0 -8 16 -37 35 -66 19 -29 35 -54 35 -57 0 -10 153 -199 255 -316 39
-44 84 -96 100 -116 36 -45 133 -133 172 -157 15 -10 40 -29 55 -42 l27 -25
-61 -56 c-34 -31 -74 -68 -89 -83 -14 -16 -32 -28 -39 -28 -7 0 -36 19 -64 43
-28 23 -76 61 -106 85 -96 73 -190 167 -335 333 -82 93 -200 246 -222 286 -13
25 -37 65 -53 89 -17 23 -30 45 -30 48 0 13 83 46 141 56 35 6 80 14 99 19 19
5 41 7 48 5 8 -2 18 -4 23 -4z m-8876 -101 c81 -25 173 -67 230 -107 l40 -28
17 -124 c26 -196 34 -231 82 -365 47 -130 72 -179 86 -170 5 3 7 23 6 45 -2
22 -2 40 -1 40 2 0 21 -33 44 -74 22 -41 68 -116 101 -167 33 -52 59 -100 58
-108 -4 -20 -80 -37 -153 -36 -177 4 -291 60 -450 220 -70 70 -85 92 -124 180
-24 55 -53 129 -63 165 -15 52 -52 251 -62 330 -1 8 -8 32 -15 54 -18 53 -9
121 19 146 31 26 94 26 185 -1z m9735 -39 c0 -5 11 -15 25 -23 l26 -13 -21
-26 c-24 -31 -64 -42 -116 -32 -36 7 -37 7 -13 19 22 13 22 13 -15 12 -37 -1
-66 20 -66 47 0 7 3 6 8 -1 5 -9 21 -7 62 7 61 21 110 25 110 10z m-9122 -536
c18 -55 43 -244 42 -325 l-1 -34 -24 46 c-31 59 -52 145 -59 244 -4 44 -9 107
-11 140 l-6 60 20 -36 c11 -19 28 -62 39 -95z m5756 -66 c-8 -12 -8 -34 -5
-223 3 -144 13 -185 44 -183 20 2 270 -117 307 -146 8 -6 52 -29 97 -51 46
-22 83 -45 83 -51 0 -20 -29 -50 -37 -38 -12 18 -62 39 -143 63 -41 13 -97 29
-123 38 -51 16 -230 20 -290 7 -47 -10 -128 -53 -161 -85 -17 -16 -26 -29 -20
-29 5 0 2 -5 -6 -10 -8 -5 -33 -10 -54 -10 -35 0 -47 -7 -103 -63 -34 -35 -63
-61 -63 -59 0 3 11 24 24 47 14 22 52 124 86 226 33 101 66 195 73 208 6 13
41 57 77 99 82 95 166 207 187 249 8 18 19 30 24 27 5 -3 6 -10 3 -16z m-4119
-232 c-1 -73 -5 -139 -9 -145 -10 -15 -109 -64 -166 -81 -25 -7 -49 -17 -55
-21 -5 -4 -25 -10 -43 -14 -26 -5 -36 -15 -52 -51 -28 -60 -42 -136 -40 -215
2 -104 -7 -114 -109 -133 -114 -22 -111 -27 -111 174 0 175 2 170 -77 185 -18
4 -61 26 -95 49 -35 24 -83 52 -108 63 -57 25 -74 46 -76 92 -1 20 -5 66 -9
104 l-6 67 38 -17 c21 -9 54 -29 74 -44 74 -56 248 -135 326 -148 85 -13 162
-3 221 31 20 12 47 27 60 33 32 17 129 102 181 158 24 26 47 47 51 47 4 0 6
-60 5 -134z m9338 22 c-4 -174 -26 -292 -73 -386 -23 -45 -44 -82 -47 -82 -3
0 -3 7 1 15 9 24 -1 17 -22 -16 l-19 -31 1 30 c0 17 5 28 10 24 5 -3 5 1 0 9
-10 17 -6 49 8 67 6 6 8 12 5 12 -3 0 1 16 9 35 8 20 12 40 9 45 -4 6 -1 10 4
10 6 0 11 11 11 25 0 16 6 25 16 25 11 0 14 4 8 13 -5 6 -9 19 -8 27 1 8 2 25
3 38 0 13 4 21 9 19 4 -3 8 32 10 76 3 103 4 107 26 134 33 38 41 20 39 -89z
m-9164 60 c64 -14 83 -35 87 -95 7 -113 24 -290 30 -315 6 -24 -2 -36 -59 -92
-51 -50 -87 -74 -171 -115 -112 -53 -261 -92 -341 -88 l-40 2 -6 55 c-7 70 6
169 28 217 13 26 33 46 68 65 28 15 56 27 62 27 7 1 49 18 93 39 45 21 83 35
86 30 3 -4 10 -6 15 -2 5 3 7 9 4 14 -3 5 18 26 46 47 125 92 185 173 129 173
-11 0 -20 -6 -20 -12 -1 -16 -46 -68 -59 -68 -5 0 -11 -4 -13 -8 -1 -4 -20
-21 -40 -36 l-38 -28 -1 73 c0 41 -2 82 -4 91 -7 37 53 47 144 26z m2750 -60
c26 -35 173 -168 225 -204 17 -12 46 -50 65 -85 18 -35 50 -86 71 -114 21 -27
54 -82 74 -121 20 -40 43 -77 51 -84 8 -7 15 -16 15 -21 0 -10 -47 8 -70 27
-8 7 -36 19 -61 27 -26 9 -59 27 -74 41 -68 63 -164 87 -268 66 -196 -38 -271
-56 -352 -82 -88 -28 -197 -50 -325 -65 -48 -6 -66 -12 -68 -24 -2 -13 10 -18
65 -24 88 -10 142 -8 277 11 264 35 547 63 647 64 64 0 115 -14 145 -41 11
-11 26 -19 33 -19 13 0 72 -30 81 -41 9 -12 55 -23 85 -20 66 5 101 24 172 97
41 42 81 74 92 74 11 0 75 11 143 24 131 26 242 37 403 39 80 1 115 -4 177
-23 68 -21 76 -26 63 -40 -7 -8 -20 -28 -29 -44 -8 -16 -50 -69 -93 -118 -120
-136 -547 -562 -643 -641 -47 -39 -101 -86 -122 -105 -41 -39 -53 -37 -56 8
-1 18 -7 41 -13 51 -11 21 -39 26 -40 7 0 -7 -2 -22 -5 -33 -2 -11 -9 -54 -15
-95 l-11 -75 -101 -95 c-55 -52 -114 -105 -131 -118 -17 -12 -78 -59 -136
-102 -58 -44 -150 -114 -205 -155 -55 -41 -109 -82 -120 -91 -11 -9 -60 -43
-110 -77 -49 -33 -117 -82 -150 -108 -136 -107 -410 -249 -480 -249 -37 0 -82
46 -120 123 -42 86 -50 152 -60 487 -7 213 -6 231 16 325 12 55 24 119 25 143
1 23 5 50 8 59 12 31 19 123 9 123 -6 0 -18 -20 -29 -45 -10 -25 -22 -45 -26
-45 -4 0 -16 -15 -25 -34 -10 -18 -36 -56 -58 -83 -22 -28 -67 -87 -99 -131
-32 -45 -80 -99 -105 -119 -25 -20 -78 -69 -116 -108 -60 -62 -120 -107 -140
-105 -3 0 -18 -6 -33 -13 -23 -12 -43 -18 -121 -33 -8 -1 -21 -9 -29 -17 -13
-13 -9 -19 28 -46 24 -17 47 -31 52 -31 24 0 -12 -54 -170 -250 -46 -57 -98
-127 -116 -154 -41 -64 -106 -201 -106 -224 0 -9 -7 -26 -15 -36 -8 -11 -15
-31 -15 -45 0 -18 -3 -22 -11 -14 -5 5 -12 43 -14 82 -2 40 -8 96 -14 124 -6
29 -13 72 -16 97 -3 25 -8 68 -12 95 -9 78 -6 280 6 385 28 241 64 458 86 519
8 24 15 54 15 67 0 12 4 25 9 28 4 3 11 19 14 36 11 53 89 215 138 285 60 88
215 213 317 257 26 11 85 38 132 60 101 47 207 83 293 99 69 13 236 78 311
121 26 16 83 45 125 64 42 20 108 51 146 70 79 38 342 144 357 144 5 0 21 9
35 20 15 12 34 18 44 15 13 -4 22 3 34 29 14 30 16 56 12 148 -3 62 -10 129
-16 148 -10 34 -10 35 7 13 9 -12 28 -37 41 -55z m-3936 53 c14 -5 19 -20 21
-61 2 -30 7 -73 11 -95 l8 -39 -24 17 c-13 9 -45 28 -71 42 -27 14 -48 27 -48
29 0 8 71 46 86 46 8 0 14 7 14 15 0 19 -14 19 -72 -2 -54 -19 -81 -55 -57
-77 8 -8 50 -33 94 -56 44 -23 95 -54 114 -67 18 -14 54 -37 80 -50 25 -14 62
-37 81 -51 19 -15 62 -36 95 -47 l60 -20 0 -161 0 -162 -25 11 c-14 6 -55 11
-92 12 -57 2 -81 9 -160 47 -165 80 -353 206 -356 240 -4 43 -1 343 4 360 5
17 53 39 139 62 59 16 74 17 98 7z m-212 -507 c38 -28 237 -152 284 -176 17
-8 48 -24 70 -36 22 -11 72 -23 110 -27 39 -4 91 -14 118 -22 45 -15 60 -14
177 2 8 1 29 5 45 9 25 6 12 -11 -85 -105 -63 -61 -164 -153 -225 -204 -60
-51 -119 -102 -130 -115 -11 -12 -67 -45 -125 -72 -100 -47 -121 -57 -214
-109 -47 -25 -191 -76 -258 -91 -43 -10 -50 -8 -112 25 -36 19 -66 32 -67 28
0 -3 -2 -17 -3 -31 -2 -14 -6 -41 -10 -61 l-8 -37 52 -11 c70 -15 110 -40 111
-68 2 -28 1 -25 22 -94 9 -31 21 -89 27 -130 16 -109 13 -363 -5 -429 -7 -26
-14 -137 -20 -325 -6 -175 -13 -256 -40 -455 -11 -82 -24 -214 -30 -300 -3
-47 -10 -110 -15 -140 -5 -30 -12 -84 -15 -120 -4 -36 -12 -96 -19 -135 -18
-104 -11 -298 14 -390 24 -89 56 -182 66 -195 7 -8 41 -58 76 -112 73 -112
186 -246 208 -248 8 0 26 -9 39 -19 23 -18 23 -18 -30 -10 -30 4 -80 8 -111 8
-32 1 -58 4 -58 9 0 4 -12 8 -26 9 -15 0 -36 6 -48 11 -11 5 -46 21 -76 35
-38 18 -73 47 -116 94 -97 109 -179 224 -204 285 -22 55 -23 60 -11 160 7 57
16 119 21 138 5 19 14 60 20 90 6 30 20 94 30 142 10 47 26 155 35 240 9 84
18 169 22 188 3 19 5 42 5 50 0 8 -3 128 -7 265 -6 254 -18 420 -36 488 -5 20
-12 73 -15 116 -3 44 -7 90 -10 103 -12 51 -20 233 -11 246 7 8 6 21 0 35 -5
12 -9 33 -8 47 2 14 -2 31 -8 38 -5 7 -7 27 -4 45 6 39 -5 62 -26 54 -10 -4
-25 11 -48 46 -18 28 -54 78 -79 112 -25 33 -57 78 -72 100 -15 22 -40 54 -55
70 -16 17 -48 55 -72 85 -90 115 -177 199 -301 290 -26 19 -63 48 -83 63 -29
23 -42 27 -66 22 -17 -4 -34 -11 -37 -16 -9 -16 5 -94 21 -115 13 -17 14 -13
9 38 -9 80 6 83 95 16 76 -57 78 -65 39 -120 -10 -15 -25 -45 -33 -67 -8 -23
-26 -62 -41 -87 l-27 -46 -18 33 c-10 19 -18 44 -19 56 0 13 -7 40 -15 60 -8
21 -16 74 -19 118 -3 44 -8 94 -11 111 -6 27 -3 33 37 59 42 29 175 101 288
155 62 30 145 60 335 119 163 50 471 139 545 156 8 2 51 19 95 38 98 43 122
44 166 11z m10019 6 c5 8 10 1 15 -21 4 -19 11 -38 14 -44 4 -5 18 -41 30 -80
12 -38 29 -85 37 -103 24 -51 35 -137 35 -264 0 -165 -10 -193 -95 -279 -29
-29 -54 -40 -39 -16 4 6 8 19 10 27 1 8 7 16 12 18 6 2 11 8 11 13 0 4 -7 6
-15 3 -9 -4 -15 0 -15 10 0 10 10 17 28 17 l27 2 -27 4 c-31 5 -37 18 -12 27
14 5 14 9 3 22 -11 13 -10 18 7 32 17 15 19 28 17 117 -4 142 -7 177 -22 203
-9 17 -10 27 -1 37 8 10 8 15 0 20 -7 4 -9 16 -7 27 3 12 0 22 -10 25 -10 4
-11 8 -3 13 8 5 8 11 -2 21 -7 8 -14 28 -15 44 l-2 30 15 -30 15 -30 -7 30
c-4 17 -7 38 -8 47 0 9 -3 15 -7 12 -3 -2 -6 15 -5 37 0 22 2 35 5 28 2 -8 5
-8 11 1z m-2049 -243 c109 -153 106 -149 94 -153 -6 -2 -71 -47 -145 -100 -74
-52 -189 -129 -255 -171 -66 -42 -143 -91 -171 -109 -28 -19 -55 -34 -61 -34
-6 0 -19 12 -29 28 -9 15 -51 72 -92 126 l-74 99 23 19 c13 10 56 39 94 65 63
43 135 97 325 245 36 28 89 72 118 99 l54 50 17 -23 c10 -13 56 -76 102 -141z
m-9330 -9 c39 -46 78 -88 86 -95 13 -10 3 -18 -57 -50 -84 -44 -94 -50 -139
-82 l-34 -24 7 49 c14 106 50 284 57 284 4 0 40 -37 80 -82z m-130 -397 c1
-47 7 -98 15 -117 8 -18 14 -44 14 -57 0 -30 47 -127 61 -127 10 0 6 -24 -11
-65 -4 -11 -13 -47 -20 -80 -6 -33 -16 -80 -21 -105 -5 -25 -11 -81 -14 -124
-3 -43 -8 -82 -10 -86 -7 -11 -25 -259 -31 -415 -10 -274 -14 -313 -39 -329
-12 -8 -34 -35 -48 -59 -14 -24 -39 -58 -56 -76 -16 -17 -35 -47 -41 -65 -8
-25 -15 -33 -29 -29 -14 3 -27 -11 -56 -60 -21 -36 -43 -63 -50 -61 -12 5 -65
-93 -65 -120 0 -9 -5 -16 -11 -16 -5 0 -8 4 -5 8 2 4 0 14 -5 22 -8 13 -13 11
-29 -9 -11 -13 -20 -29 -20 -37 0 -8 -6 -11 -15 -8 -16 6 -36 -32 -86 -163
-24 -65 -33 -70 -43 -27 -4 14 -14 37 -23 50 -18 28 -53 32 -53 6 0 -10 -4
-22 -8 -28 -5 -5 -17 -37 -28 -71 -10 -35 -22 -63 -26 -63 -4 0 -5 7 -2 15 11
29 -23 15 -36 -14 -6 -16 -21 -31 -32 -34 -11 -3 -22 -15 -25 -26 -3 -11 -14
-21 -25 -23 -15 -2 -26 -18 -39 -58 l-18 -55 -2 40 c-5 112 -33 133 -60 45
-10 -30 -33 -92 -51 -137 l-34 -82 -13 30 c-21 47 -43 33 -61 -39 l-15 -63
-28 55 c-16 31 -31 56 -34 56 -3 0 -11 -7 -17 -15 -9 -13 -20 -4 -66 55 -57
73 -67 80 -76 55 -6 -14 -8 -13 -19 1 -7 10 -19 15 -26 12 -9 -4 -19 4 -26 18
-9 20 -7 30 17 63 16 22 44 65 62 96 18 31 43 73 55 93 13 21 37 63 55 95 20
37 36 56 45 52 7 -3 19 -8 27 -11 9 -3 17 2 21 14 9 31 195 205 304 285 53 39
119 92 146 117 28 26 63 56 79 68 16 13 129 114 250 225 121 111 238 218 259
237 l38 35 10 205 c5 113 11 215 13 226 2 12 7 68 11 125 4 57 9 118 11 134 2
17 11 139 21 272 17 240 32 304 34 144z m10608 -43 c11 -10 13 -10 7 -1 -5 10
3 12 36 7 24 -3 53 -7 65 -9 12 -2 27 -6 34 -11 8 -4 9 -3 5 4 -9 15 -7 15 97
-5 48 -9 87 -20 87 -25 0 -4 7 -8 16 -8 17 0 167 -88 172 -101 2 -5 10 -9 18
-9 8 0 17 -7 20 -15 4 -8 11 -15 17 -15 24 0 86 -36 82 -47 -2 -7 1 -15 7 -19
7 -4 8 -3 4 4 -10 16 5 15 42 -4 37 -18 44 -40 10 -29 -13 3 -42 10 -65 15
-45 10 -122 44 -168 76 -17 12 -47 32 -67 45 -20 13 -34 27 -32 31 3 4 -2 5
-10 2 -9 -3 -16 -2 -16 3 0 11 -66 33 -99 33 -12 0 -24 7 -27 15 -5 12 -9 13
-21 4 -10 -9 -17 -9 -25 -1 -15 15 -31 15 -22 0 4 -7 3 -8 -4 -4 -18 11 -48
15 -122 17 -67 2 -68 2 -72 30 -5 31 9 38 31 17z m1116 -25 c-13 -75 -26 -185
-30 -248 -5 -89 -49 -383 -81 -545 -52 -264 -77 -398 -84 -465 -13 -104 -20
-148 -27 -155 -3 -3 -4 10 -1 28 2 17 1 32 -3 32 -4 0 -10 24 -14 53 -7 57
-40 225 -57 297 -17 70 -110 189 -160 205 -9 3 -18 12 -21 19 -4 10 0 12 17 7
29 -8 76 -46 76 -61 0 -7 8 -10 20 -7 12 3 20 0 20 -8 0 -7 7 -16 16 -19 8 -3
13 -10 10 -14 -9 -15 67 -152 84 -152 20 0 -52 177 -75 186 -8 4 -15 11 -14
18 1 6 -1 22 -5 36 -7 28 36 158 57 172 9 6 9 8 0 8 -13 0 -12 3 8 55 7 17 13
35 13 40 3 25 18 55 26 50 5 -3 11 3 15 14 3 11 12 22 20 25 8 3 12 12 9 21
-4 8 1 17 10 21 9 3 13 10 11 15 -6 9 34 91 47 97 4 2 4 10 1 19 -4 11 -2 14
5 9 8 -5 10 -2 5 9 -3 10 -1 20 5 24 6 3 13 18 16 33 2 14 9 35 15 46 6 12 11
32 11 46 0 14 4 27 8 30 4 2 9 19 10 37 2 30 15 48 35 49 4 0 5 -12 2 -27z
m-12823 -60 c21 -19 23 -46 5 -65 -7 -7 -22 -31 -33 -53 -11 -22 -34 -65 -51
-95 -88 -157 -129 -232 -166 -300 -22 -41 -71 -129 -109 -194 -37 -66 -68
-123 -68 -128 0 -23 -32 -3 -49 30 -59 116 -78 262 -51 405 23 126 58 195 138
276 87 87 202 140 301 141 46 0 70 -5 83 -17z m11772 -57 c37 -4 107 -15 155
-27 47 -11 96 -22 109 -25 12 -2 22 -9 22 -15 0 -6 -5 -7 -12 -3 -7 4 -8 3 -4
-5 4 -6 11 -9 16 -6 11 7 71 -45 65 -56 -4 -5 0 -6 8 -4 8 4 19 -5 27 -21 8
-14 27 -37 43 -50 16 -13 23 -24 15 -25 -10 0 -10 -2 0 -6 6 -2 12 -11 12 -19
0 -7 6 -11 13 -9 17 7 80 -61 71 -77 -4 -7 -4 -10 1 -6 4 4 14 3 22 -3 23 -20
14 -28 -17 -16 -16 6 -30 15 -30 20 0 4 -4 6 -10 2 -11 -7 -44 21 -176 151
l-103 101 -93 17 c-51 8 -124 17 -163 18 -73 3 -83 9 -84 55 -1 17 4 21 22 18
12 -2 53 -6 91 -9z m155 -175 c28 -16 160 -161 177 -196 12 -24 12 -27 1 -12
-8 9 -19 17 -24 17 -6 0 -34 26 -64 57 -30 32 -58 58 -63 58 -5 0 -11 6 -14
14 -3 8 0 11 6 7 6 -3 13 -2 17 3 3 6 -3 8 -14 6 -11 -2 -50 3 -88 11 -37 8
-94 14 -126 13 -56 -2 -84 11 -71 33 7 11 240 1 263 -11z m11 -366 c181 -33
283 -57 320 -76 14 -7 41 -31 60 -53 19 -22 29 -36 23 -32 -24 14 -13 -9 17
-38 17 -16 30 -36 28 -45 -1 -9 0 -21 4 -27 36 -56 78 -229 78 -319 0 -81 -19
-176 -46 -235 -61 -131 -119 -230 -136 -230 -9 0 2 23 48 96 26 43 3 17 -42
-46 -21 -30 -108 -135 -191 -233 -84 -97 -153 -181 -153 -185 0 -10 -54 -72
-63 -72 -17 0 12 84 49 140 85 129 155 226 196 274 129 151 212 316 225 446
19 192 -85 381 -245 445 -53 21 -96 29 -204 38 l-137 10 -100 -32 c-55 -17
-113 -41 -128 -54 -15 -12 -53 -39 -83 -59 -93 -63 -213 -194 -257 -283 -11
-22 -35 -80 -54 -130 -28 -76 -34 -108 -38 -204 -4 -75 -10 -116 -18 -118 -20
-7 -26 63 -20 221 10 226 17 246 164 443 125 167 240 258 396 312 46 16 97 36
113 45 37 20 88 20 194 1z m-920 -548 c0 -7 -6 -36 -14 -63 -20 -67 -35 -198
-31 -264 4 -58 7 -142 6 -174 -1 -19 -2 -19 -21 2 -11 12 -20 26 -20 32 0 6
-4 9 -9 6 -4 -3 -8 7 -8 22 0 15 -1 36 -1 47 -1 11 1 38 3 60 3 22 8 69 11
105 4 36 17 102 30 148 13 45 24 84 24 87 0 3 7 5 15 5 8 0 15 -6 15 -13z
m-11739 -507 c169 -72 238 -80 254 -30 6 20 16 25 28 14 3 -4 0 -13 -8 -21 -8
-8 -15 -24 -15 -35 0 -25 -90 -196 -107 -202 -7 -3 -38 6 -70 18 -32 13 -102
39 -155 56 -108 36 -113 43 -81 103 9 18 17 34 18 37 1 7 59 89 63 90 2 0 34
-13 73 -30z m13284 -75 c-3 -11 -8 -50 -12 -87 l-6 -68 -59 0 c-51 0 -63 -4
-90 -29 l-31 -29 -19 34 c-20 37 -22 48 -10 40 10 -6 122 109 122 125 0 5 7 9
16 9 8 0 13 4 9 9 -6 11 14 16 57 16 24 0 28 -3 23 -20z m208 -57 c7 -4 6 -16
-1 -35 -15 -37 -22 -102 -11 -109 5 -3 9 -14 9 -25 0 -36 149 -320 231 -440
31 -45 47 -59 65 -59 l24 0 -1 -136 c0 -110 2 -139 15 -153 26 -29 19 -63 -44
-218 -17 -39 -40 -113 -54 -165 l-23 -93 -12 40 c-6 22 -11 50 -11 63 0 12 -4
22 -8 22 -8 0 -42 -186 -42 -226 0 -12 -8 -32 -17 -43 -17 -21 -18 -18 -13 96
7 150 2 336 -11 433 -12 89 -38 181 -55 195 -6 6 -15 26 -19 45 -4 19 -11 40
-15 45 -4 6 -10 26 -14 45 -3 19 -24 71 -46 114 -22 44 -40 81 -40 83 0 2 10
-2 22 -9 45 -25 98 -94 122 -158 10 -25 26 -63 36 -85 10 -22 28 -72 41 -112
13 -40 25 -71 27 -69 5 6 -19 130 -28 141 -4 6 -10 87 -12 180 -5 157 -8 175
-32 229 -52 117 -97 158 -198 180 -21 5 -28 12 -28 30 0 13 7 29 15 36 8 7 15
19 15 27 0 13 9 37 58 156 l16 38 15 -28 c7 -15 18 -31 24 -35z m3903 -26 c37
-24 45 -129 19 -252 -15 -72 -42 -137 -52 -126 -3 3 -7 47 -8 98 -1 68 -8 107
-24 146 -23 59 -27 112 -9 130 13 13 57 16 74 4z m-6007 -196 c53 -8 130 -17
171 -20 94 -7 510 -12 650 -8 58 2 108 3 112 3 4 -1 -14 -38 -41 -83 -26 -46
-69 -122 -94 -170 -38 -69 -53 -88 -79 -98 -23 -9 -135 -14 -363 -16 -181 -2
-335 -6 -341 -8 -13 -5 -31 39 -64 154 -12 41 -32 107 -45 145 -36 112 -39
129 -19 121 9 -3 60 -13 113 -20z m1528 -117 l3 -89 -31 -19 c-40 -25 -255
-88 -265 -78 -2 2 4 12 14 23 10 10 33 41 51 67 36 53 58 67 72 46 7 -11 14
-8 36 16 16 17 39 46 52 65 30 43 55 69 61 63 2 -2 6 -44 7 -94z m-547 -289
c0 -43 -106 -356 -130 -383 -13 -14 1 96 20 163 23 80 72 221 83 238 14 21 27
13 27 -18z m723 -74 c26 -47 47 -87 47 -90 0 -3 27 -47 60 -98 33 -50 60 -96
60 -102 0 -5 16 -32 35 -60 19 -28 50 -86 69 -129 28 -65 32 -84 25 -115 -14
-64 -56 -75 -104 -28 -12 12 -28 36 -36 54 -7 17 -20 32 -26 32 -7 0 -12 3
-11 8 1 4 -2 26 -6 49 -5 30 -13 43 -29 48 -22 7 -22 7 3 15 23 7 23 8 4 9
-17 1 -23 9 -28 39 -13 78 -15 87 -25 90 -6 2 -9 8 -5 13 3 5 0 9 -6 9 -7 0
-10 7 -6 15 3 8 -3 20 -12 27 -18 13 -53 63 -52 74 1 3 -9 15 -22 26 -13 11
-22 26 -20 34 2 8 -2 14 -8 14 -5 0 -10 8 -10 19 0 10 -7 24 -14 31 -12 9 -13
18 -5 38 10 28 46 61 65 62 5 0 31 -38 57 -84z m377 -158 c12 -29 24 -67 25
-85 2 -18 7 -37 10 -44 4 -6 7 -66 7 -132 0 -112 -3 -131 -36 -229 -19 -59
-48 -127 -65 -150 -41 -59 -141 -153 -171 -163 -14 -4 -48 -18 -76 -31 -29
-12 -69 -25 -90 -28 -22 -3 -68 -10 -104 -16 -168 -28 -424 54 -537 172 -77
80 -151 273 -139 363 8 63 48 205 58 205 5 0 8 -6 7 -12 -1 -7 1 -21 6 -31 4
-9 3 -23 -3 -30 -5 -6 -10 -39 -11 -72 -1 -33 -4 -67 -7 -77 -2 -9 0 -19 6
-23 5 -3 10 -15 10 -25 0 -33 49 -132 79 -161 46 -43 171 -101 204 -93 15 3
34 1 41 -5 35 -29 291 -44 374 -21 21 5 75 19 122 30 88 22 168 70 188 114 22
49 32 78 32 97 0 11 4 18 8 15 5 -3 19 13 31 35 20 35 23 53 21 132 -1 51 -1
94 0 97 7 13 7 56 0 65 -4 6 -10 33 -13 60 -4 28 -9 60 -13 73 -12 43 14 21
36 -30z m-1307 -41 c-8 -114 33 -467 62 -532 7 -16 27 -64 45 -105 38 -88 59
-113 120 -146 49 -27 97 -57 188 -120 35 -24 96 -52 146 -68 75 -24 99 -27
185 -25 55 2 102 1 106 -3 25 -25 295 100 395 184 33 27 60 47 60 44 0 -3 -23
-33 -51 -66 -45 -54 -64 -68 -153 -110 -56 -26 -148 -62 -204 -80 -86 -27
-117 -31 -199 -31 -90 1 -202 17 -295 42 -21 5 -75 32 -120 59 -98 59 -232
195 -278 282 -45 84 -90 265 -90 363 0 143 55 395 86 395 2 0 0 -37 -3 -83z"/>
<path d="M2180 7538 c-14 -13 -29 -22 -33 -20 -5 1 -15 -2 -21 -7 -11 -10
-155 -8 -236 3 -111 14 -75 -85 48 -133 94 -37 195 -22 239 36 14 18 30 30 36
26 5 -3 7 -1 3 5 -3 5 -1 12 4 14 6 2 13 18 16 36 5 29 2 34 -17 39 -22 6 -22
7 -3 14 14 5 15 8 3 8 -8 1 -26 -9 -39 -21z"/>
<path d="M1945 7129 c-44 -5 -108 -11 -142 -13 -68 -4 -83 -10 -83 -33 0 -17
-3 -17 270 7 144 13 240 8 240 -12 0 -6 -8 -7 -17 -3 -14 5 -15 4 -6 -6 10
-10 15 -9 27 0 8 7 19 10 24 7 10 -6 9 21 -1 44 -6 13 -29 16 -120 17 -61 0
-148 -3 -192 -8z"/>
<path d="M1962 6968 c-17 -5 -33 -17 -37 -27 -7 -23 -2 -100 6 -95 8 4 59 -19
59 -27 0 -9 85 8 110 21 33 18 43 46 26 78 -24 46 -95 68 -164 50z"/>
<path d="M17124 8519 c-1 -55 -6 -105 -11 -110 -17 -17 -152 -22 -230 -10 -66
10 -102 6 -132 -16 -7 -5 37 -43 48 -43 6 0 32 -15 58 -32 64 -44 125 -44 201
-3 28 15 52 32 52 36 0 4 7 15 15 23 36 35 41 62 33 148 -8 89 -13 108 -25
108 -4 0 -9 -45 -9 -101z"/>
<path d="M16820 8024 c-14 -2 -56 -9 -95 -15 -50 -8 -77 -18 -94 -35 -22 -22
-21 -30 4 -24 166 41 347 52 441 29 38 -10 48 -9 61 3 13 14 11 17 -19 28 -33
12 -250 22 -298 14z"/>
<path d="M13677 7323 c-4 -3 -7 -19 -7 -34 0 -22 -6 -30 -25 -35 -14 -3 -25
-10 -25 -14 0 -12 -148 -12 -205 1 -37 8 -55 17 -58 30 -5 19 -37 27 -37 9 0
-5 -7 -7 -15 -4 -8 4 -15 1 -15 -5 0 -6 5 -11 10 -11 6 0 10 -12 10 -27 0 -23
-2 -25 -11 -13 -9 12 -10 12 -5 -3 3 -10 6 -21 6 -23 0 -3 5 -2 12 2 8 5 9 2
5 -9 -3 -9 -1 -19 5 -23 7 -4 8 -3 4 4 -4 7 -2 12 3 12 6 0 11 -4 11 -10 0 -5
6 -7 14 -4 8 3 17 -3 20 -14 4 -11 27 -29 54 -40 122 -52 207 -34 271 57 23
31 33 102 18 117 -3 3 -4 11 -3 17 2 7 1 9 -1 5 -2 -4 -11 -4 -19 -1 -7 3 -11
9 -8 14 6 11 0 12 -9 2z"/>
<path d="M13510 6989 c-38 -6 -34 -7 25 -4 42 1 62 -1 50 -6 -11 -4 -36 -8
-55 -8 -20 -1 -59 -7 -88 -15 -29 -7 -52 -9 -52 -5 0 4 -16 1 -36 -7 -20 -8
-42 -13 -48 -11 -7 3 -13 -4 -13 -15 -2 -17 4 -19 60 -17 34 1 89 7 122 15 33
7 107 14 165 15 141 1 159 5 153 30 -4 14 -14 19 -39 19 -18 0 -44 4 -59 10
-17 7 -24 7 -20 0 10 -16 -52 -16 -69 1 -11 10 -30 10 -96 -2z"/>
<path d="M13525 6822 c-33 -12 -49 -25 -69 -57 -10 -16 -16 -27 -12 -24 4 4
18 -4 31 -17 23 -23 49 -29 110 -25 59 4 92 21 105 52 12 27 11 33 -7 51 -22
21 -119 34 -158 20z"/>
<path d="M10402 7004 c-57 -30 -110 -60 -118 -69 -9 -8 -19 -15 -24 -15 -5 0
-40 -26 -77 -58 -79 -67 -183 -134 -233 -150 -22 -7 -51 -8 -77 -3 -27 5 -46
4 -52 -2 -24 -24 -11 -38 83 -94 19 -11 18 -12 -9 -19 -21 -5 -39 -1 -68 16
-22 12 -53 26 -68 30 -27 8 -28 7 -25 -21 2 -16 9 -36 17 -45 18 -22 87 -56
93 -45 3 5 18 11 33 14 16 3 40 17 55 31 25 24 86 38 73 16 -3 -5 -12 -7 -20
-3 -22 8 -19 -69 4 -115 22 -42 76 -96 106 -106 19 -6 19 -5 -1 12 -12 10 -25
28 -28 40 -4 12 -11 20 -15 18 -4 -3 -13 5 -21 17 -12 20 -12 21 3 9 14 -12
14 -9 1 34 -18 61 -9 118 22 139 32 21 34 20 34 -22 1 -46 22 -107 45 -133 27
-29 101 -60 146 -60 53 0 118 39 155 92 26 37 29 49 28 118 l-1 77 61 -14 c34
-8 75 -17 91 -20 17 -3 36 -10 43 -15 15 -13 16 -60 1 -75 -13 -13 3 -26 24
-18 21 9 54 74 62 123 l7 42 -44 19 c-42 18 -180 53 -268 68 l-44 8 54 29
c189 101 211 108 298 92 60 -11 56 12 -10 51 -136 82 -189 83 -336 7z m9 -400
c26 -13 30 -19 24 -42 -14 -57 -89 -112 -151 -112 -49 0 -98 16 -90 29 3 5 -2
8 -12 7 -13 -1 -18 8 -20 36 -3 33 0 38 23 44 15 4 43 2 63 -4 29 -9 41 -9 59
4 13 8 23 19 23 25 0 7 28 24 48 28 2 1 17 -6 33 -15z"/>
<path d="M8590 6933 c-111 -29 -160 -48 -160 -63 0 -17 24 -21 69 -11 56 12
158 -13 270 -67 l84 -41 -39 -10 c-22 -5 -61 -15 -89 -22 -63 -15 -195 -75
-195 -88 0 -5 -3 -17 -6 -26 -5 -11 14 -35 62 -82 72 -68 108 -83 132 -54 11
14 11 13 2 -8 -11 -21 -8 -27 27 -58 39 -35 108 -83 119 -83 4 0 0 8 -7 18 -7
9 0 5 17 -11 17 -15 44 -29 61 -30 17 -1 29 -5 27 -8 -2 -3 14 -14 34 -24 50
-24 188 -24 245 0 40 17 10 24 -103 22 -66 -1 -120 -6 -120 -10 0 -5 -7 -2
-15 7 -24 24 -177 97 -192 92 -7 -3 -15 0 -19 6 -4 7 -3 8 4 4 7 -4 12 -1 12
8 0 8 -9 17 -19 21 -11 3 -22 13 -26 23 -5 14 -7 14 -15 2 -8 -12 -10 -11 -10
7 0 12 -8 35 -17 52 -17 28 -17 31 -1 47 12 12 14 23 8 39 -8 21 -4 25 43 40
72 23 142 31 131 14 -12 -21 -6 -126 10 -156 19 -38 75 -89 109 -102 45 -17
124 -13 167 9 51 26 94 110 95 185 0 50 1 51 25 43 14 -4 37 -10 51 -12 47
-10 64 -91 34 -164 -15 -35 -15 -36 1 -20 12 11 19 38 22 77 l4 59 33 -19 c18
-11 52 -20 76 -21 36 -2 54 5 95 33 46 32 50 37 38 54 -12 16 -17 17 -41 5
-28 -14 -143 -26 -143 -16 0 3 20 15 44 27 52 24 71 43 63 63 -4 9 -15 12 -32
9 -42 -8 -228 35 -286 67 -9 4 -54 24 -101 44 -47 19 -118 50 -159 68 -98 45
-122 54 -199 72 -83 19 -106 18 -220 -11z m648 -375 c6 -6 12 -21 12 -34 0
-66 -57 -113 -149 -121 -54 -5 -60 -3 -94 26 -34 31 -42 60 -20 82 13 13 71
20 78 9 3 -5 19 -10 35 -10 22 0 33 7 44 29 9 16 13 30 11 33 -9 9 71 -5 83
-14z"/>
<path d="M9901 5877 c-6 -8 -8 -16 -5 -20 11 -11 -42 -35 -105 -47 -36 -6 -90
-9 -125 -5 -68 7 -176 36 -176 48 0 4 -7 7 -15 7 -10 0 -14 -7 -11 -22 3 -13
5 -31 5 -41 1 -21 154 -97 212 -104 80 -11 124 4 189 64 53 50 60 61 60 95 0
39 -10 48 -29 25z"/>
<path d="M9600 5534 c-121 -17 -150 -25 -150 -40 0 -18 48 -18 175 2 97 15
318 20 350 8 10 -4 15 0 15 14 0 19 -8 20 -127 25 -153 7 -155 7 -263 -9z"/>
<path d="M9715 5335 c-5 -2 -22 -6 -37 -9 -35 -8 -38 -48 -6 -70 56 -39 156
-6 154 51 -1 27 -4 28 -51 30 -27 1 -54 0 -60 -2z"/>
<path d="M10400 4580 c-58 -10 -143 -21 -190 -25 -99 -8 -142 -24 -164 -58
-21 -32 -12 -53 28 -67 27 -9 47 -6 112 14 43 13 122 36 174 51 140 40 270 86
270 96 0 14 -116 9 -230 -11z"/>
<path d="M9480 4473 c-240 -26 -430 -43 -560 -49 -162 -7 -222 -15 -227 -31
-5 -15 39 -21 272 -33 297 -16 532 -13 588 6 51 17 77 45 77 81 0 35 -27 40
-150 26z"/>
<path d="M3901 8649 c-10 -23 -71 -183 -85 -223 -11 -33 -14 -13 -5 44 10 68
11 125 3 117 -4 -3 -8 -27 -11 -53 -5 -62 -31 -243 -39 -271 -4 -14 -2 -23 4
-23 6 0 16 19 22 43 19 77 52 182 60 190 4 4 -1 -34 -11 -85 -19 -96 -26 -303
-9 -261 5 12 9 58 8 101 0 43 4 101 11 128 6 27 18 78 26 114 19 83 20 86 39
139 11 29 13 48 7 54 -7 7 -14 2 -20 -14z"/>
<path d="M2850 7015 c0 -7 -11 -10 -29 -7 -27 4 -29 2 -24 -19 l6 -24 -22 20
c-15 13 -21 15 -19 5 2 -7 -9 -20 -25 -27 -22 -12 -25 -17 -17 -33 15 -27 12
-50 -5 -50 -8 0 -15 -5 -15 -11 0 -5 5 -7 10 -4 6 3 10 1 10 -4 0 -6 -4 -11
-9 -11 -5 0 -11 -13 -13 -29 -3 -20 0 -27 8 -24 7 2 11 10 8 17 -6 15 25 18
42 4 6 -4 20 -5 29 -1 13 5 16 3 10 -6 -9 -16 11 -31 43 -31 12 0 22 -5 22
-12 0 -8 6 -7 16 4 12 12 14 20 5 36 -9 16 -8 24 4 36 9 8 15 19 15 23 -1 4 7
10 17 14 10 4 14 8 10 8 -11 1 21 46 33 47 23 3 24 5 10 14 -9 6 -10 10 -3 10
15 0 -14 60 -30 61 -7 0 -29 2 -49 4 -25 1 -38 -2 -38 -10z"/>
<path d="M6427 3142 c-79 -110 -294 -437 -334 -507 -37 -64 -93 -150 -271
-415 -46 -69 -93 -142 -105 -164 -33 -59 -93 -153 -138 -218 -11 -15 -51 -89
-90 -165 -100 -193 -214 -358 -279 -400 -19 -12 -39 -26 -45 -30 -22 -17 -88
-44 -93 -38 -4 3 2 27 12 53 26 69 32 106 15 100 -8 -3 -15 -13 -17 -24 -7
-41 -14 -50 -21 -29 -7 18 -10 -6 -12 -104 -1 -27 18 -51 29 -36 4 6 36 25 72
44 36 18 73 41 84 50 22 19 136 158 136 166 0 4 13 23 29 43 29 36 50 74 150
267 26 50 69 124 95 165 77 118 96 149 96 155 0 7 115 179 212 318 46 66 94
140 108 166 31 58 81 139 228 363 62 95 133 203 157 241 58 87 44 87 -18 -1z"/>
<path d="M9022 758 c-91 -14 -158 -63 -197 -142 -68 -138 -29 -292 95 -375 44
-30 60 -35 129 -39 61 -3 92 0 132 14 96 35 167 133 172 235 l2 54 -155 0
-155 0 0 -30 0 -30 113 -3 c124 -3 123 -2 93 -67 -34 -75 -85 -105 -177 -105
-90 0 -145 36 -183 120 -47 104 -7 231 89 280 80 41 203 17 245 -47 12 -18 24
-23 60 -23 25 0 45 2 45 5 0 17 -34 66 -63 92 -61 54 -151 76 -245 61z"/>
<path d="M6830 480 l0 -280 135 0 135 0 0 30 0 30 -95 0 -95 0 0 250 0 250
-40 0 -40 0 0 -280z"/>
<path d="M7541 738 c-44 -117 -191 -527 -191 -532 0 -3 18 -6 39 -6 39 0 40 1
59 58 l19 57 123 0 124 0 20 -58 c20 -56 22 -57 58 -57 21 0 38 3 38 8 0 4
-43 130 -97 280 l-98 272 -43 0 c-35 0 -44 -4 -51 -22z m142 -350 c-2 -5 -44
-8 -94 -8 -64 0 -89 3 -89 13 0 11 50 156 80 232 12 29 13 27 59 -100 26 -72
46 -133 44 -137z"/>
<path d="M8130 480 l0 -280 40 0 40 0 0 116 0 115 32 -3 c29 -3 39 -14 103
-115 l70 -113 48 0 c26 0 47 2 47 5 0 2 -29 50 -65 105 -78 120 -83 130 -60
130 30 0 82 39 99 74 9 19 16 59 16 90 0 50 -4 60 -35 94 -45 50 -87 62 -224
62 l-111 0 0 -280z m215 210 c52 -12 75 -41 75 -94 0 -76 -45 -106 -157 -106
l-53 0 0 105 0 105 48 0 c26 0 65 -5 87 -10z"/>
<path d="M9640 480 l0 -280 150 0 150 0 0 30 0 30 -110 0 -110 0 0 95 0 95
100 0 100 0 0 30 0 30 -100 0 -100 0 0 95 0 95 110 0 110 0 0 30 0 30 -150 0
-150 0 0 -280z"/>
<path d="M10682 483 l3 -278 38 -3 37 -3 0 192 c0 106 4 189 8 183 5 -5 46
-91 92 -191 78 -170 86 -183 110 -183 25 0 32 12 110 182 45 101 87 187 91
193 5 5 9 -75 9 -184 l0 -192 38 3 37 3 3 278 2 277 -42 0 -43 0 -100 -220
c-55 -121 -102 -220 -105 -220 -3 0 -50 99 -105 220 l-100 220 -42 0 -43 0 2
-277z"/>
<path d="M11647 488 c-54 -150 -97 -276 -97 -280 0 -5 17 -8 38 -8 37 0 38 1
57 58 l20 57 122 3 122 3 22 -61 c21 -59 22 -60 60 -60 22 0 39 3 39 8 0 4
-44 129 -98 277 l-98 270 -45 3 -44 3 -98 -273z m192 31 c22 -64 41 -121 41
-128 0 -11 -171 -17 -182 -6 -3 3 16 64 41 135 25 71 49 126 52 122 4 -4 25
-59 48 -123z"/>
<path d="M12313 746 c3 -8 40 -70 82 -137 45 -73 73 -129 70 -138 -3 -8 -39
-69 -80 -136 -41 -67 -75 -125 -75 -129 0 -4 19 -6 42 -4 42 3 42 3 99 101 31
54 59 100 62 103 3 3 33 -42 68 -100 l64 -105 43 -1 c23 0 42 3 42 6 0 3 -36
64 -80 135 -44 71 -80 134 -80 139 0 6 34 65 76 131 41 67 78 127 81 135 4 11
-5 14 -38 14 l-44 -1 -59 -104 c-33 -58 -62 -102 -65 -99 -3 3 -33 49 -66 102
-61 96 -61 97 -104 100 -36 3 -43 1 -38 -12z"/>
<path d="M18378 681 c-10 -10 -18 -21 -18 -24 0 -23 -44 -96 -54 -90 -6 3 -3
-3 7 -14 9 -11 17 -29 17 -40 0 -29 -27 -37 -34 -10 l-6 22 -20 -24 c-11 -13
-20 -34 -20 -47 0 -13 -9 -47 -20 -76 -11 -29 -20 -64 -20 -78 1 -25 1 -25 13
-3 7 12 23 30 37 41 14 11 35 37 45 58 11 21 31 50 43 64 26 27 52 80 52 105
0 9 11 31 25 50 46 59 4 118 -47 66z"/>
<path d="M7297 22 c-9 -2 -15 -8 -12 -13 9 -13 4435 -12 4435 1 0 6 -17 11
-37 11 -104 3 -4371 4 -4386 1z"/>
</g>
</svg>
